<svg width="24" height="24" viewBox="0 0 24 24" fill="none" xmlns="http://www.w3.org/2000/svg">
<path d="M7.05864 8.71168C7.46584 8.48007 8.84782 4.145 8.50899 3.51877C8.17014 2.89252 3.85148 1.80009 3.44429 2.03171C3.0371 2.26332 4.16658 4.35081 4.16658 4.35081C0.0946844 6.66695 2.86896 11.513 3.63879 11.0751C3.67734 11.0531 3.67275 10.9565 3.66545 10.803C3.66462 10.7855 3.66375 10.7673 3.66291 10.7483C3.66158 10.7183 3.65967 10.684 3.65756 10.6458C3.62141 9.99384 3.52241 8.20862 5.10836 7.11231C5.23574 7.02426 5.37417 6.93988 5.52197 6.85581C5.52197 6.85581 6.65145 8.9433 7.05864 8.71168Z" fill="black"/>
<path d="M11.6307 9V10.4286H13.281C13.6758 10.4286 13.9958 10.1088 13.9958 9.71429C13.9958 9.31979 13.6758 9 13.281 9H11.6307Z" fill="black"/>
<path d="M3.00363 12.6228C3.25013 17.8371 6.61782 21 11.9945 21C17.5821 21 21 17.5842 21 12C21 6.4158 17.5821 3 11.9945 3C11.3747 3 10.7815 3.04204 10.2167 3.12442C9.71007 3.19832 9.57698 3.25187 9.5531 3.94659C9.54465 4.19147 9.50842 4.46439 9.46021 4.73628C9.36296 5.28465 9.19819 5.93169 9.01482 6.54815C8.83099 7.16621 8.62039 7.78058 8.42407 8.26562C8.32688 8.50574 8.22546 8.73348 8.12524 8.92027C8.07574 9.01256 8.01611 9.11452 7.94698 9.20967C7.89737 9.27793 7.76474 9.45592 7.54488 9.5809C7.07396 9.8486 6.62378 9.69484 6.41976 9.59293C6.20847 9.4874 6.04159 9.33755 5.93053 9.22656C5.8215 9.11761 5.68028 8.92145 5.55173 8.73963C5.26758 8.33773 5.05898 8.26562 4.85014 8.73963C4.72676 9.01965 4.72437 9.46064 4.72182 9.93162C4.71752 10.7275 4.71274 11.609 4.12295 11.9443C3.90254 12.0696 3.68642 12.1131 3.4894 12.1094C3.04351 12.1012 2.98235 12.1722 3.00363 12.6228ZM15.997 9.71429C15.997 11.2133 14.781 12.4286 13.281 12.4286H11.6307V13.2857H13.359C13.9116 13.2857 14.3596 13.7334 14.3596 14.2857C14.3596 14.838 13.9116 15.2857 13.359 15.2857H11.6307V16C11.6307 16.5523 11.1827 17 10.6301 17C10.0775 17 9.62948 16.5523 9.62948 16V15.2857H8.99273C8.44011 15.2857 7.99212 14.838 7.99212 14.2857C7.99212 13.7334 8.44011 13.2857 8.99273 13.2857H9.62948V12.4286H8.99273C8.44011 12.4286 7.99212 11.9809 7.99212 11.4286C7.99212 10.8763 8.44011 10.4286 8.99273 10.4286H9.62948V8.20779C9.62948 7.54075 10.1706 7 10.838 7H13.281C14.781 7 15.997 8.21523 15.997 9.71429Z" fill="black"/>
</svg>
