<svg width="24" height="24" viewBox="0 0 24 24" fill="none" xmlns="http://www.w3.org/2000/svg">
<path d="M18.0004 13C20.2094 13.0002 22.0004 14.7909 22.0004 17C22.0004 19.2091 20.2094 20.9998 18.0004 21C15.7913 20.9999 14.0004 19.2091 14.0004 17C14.0004 14.7909 15.7913 13.0001 18.0004 13ZM11.9994 5C13.1202 5 14.1157 5 14.9994 5.00977L15.1156 5.01074C16.3284 5.02344 16.9817 5.03053 17.0941 6C17.2345 7.21209 17.5551 8.1377 18.2084 8.79102C18.6686 9.25115 19.2641 9.54614 19.9994 9.72949C20.1462 9.76611 20.2864 9.79297 20.4183 9.8125C20.5964 9.83882 20.7607 9.85377 20.9105 9.86719H20.9193C21.6138 9.9287 21.9943 9.96273 21.9984 11C21.9997 11.3164 21.9994 11.6494 21.9994 12C21.9994 13 21.4994 12.8552 20.9994 12.5996C20.2494 12.2164 19.3995 12 18.4994 12C17.9795 12 17.4761 12.0723 16.9994 12.207L16.9545 12.2197C16.2049 12.4321 15.9994 12.4902 15.9994 12C15.9994 9.79077 14.2086 8 11.9994 8C9.79035 8.00015 7.99939 9.79086 7.99939 12C7.99939 14.2091 9.79035 15.9999 11.9994 16C12.0348 16 12.0706 15.9998 12.1058 15.999C12.5679 15.9902 12.9994 15.9814 12.9994 17.5C12.9994 18.8284 12.9994 18.989 11.9994 19C11.4964 19 11.0185 19 10.5648 18.999C10.0076 18.998 9.48641 18.9956 8.99939 18.9902L8.88318 18.9893C7.67066 18.9766 7.01702 18.9694 6.90466 18C6.76428 16.7879 6.44378 15.8623 5.79041 15.209C5.33016 14.7489 4.73472 14.4538 3.99939 14.2705C3.65263 14.1839 3.34689 14.157 3.08533 14.1338L3.08044 14.1328C2.38588 14.0713 2.00543 14.0373 2.00134 13C2.00006 12.6836 1.99939 12.3506 1.99939 12C1.99939 11.6494 2.00006 11.3164 2.00134 11C2.00543 9.96266 2.38588 9.92871 3.08044 9.86719H3.09119C3.23265 9.85449 3.38735 9.84009 3.55408 9.81641C3.64594 9.80323 3.74188 9.78734 3.84119 9.7666C3.893 9.75564 3.94563 9.74288 3.99939 9.72949C4.73472 9.54616 5.33016 9.25113 5.79041 8.79102C6.44378 8.1377 6.76428 7.21214 6.90466 6C7.01691 5.03126 7.68306 5.02417 8.91736 5.01074L8.99939 5.00977C9.88305 5 10.8785 5 11.9994 5ZM18.0004 15C17.4482 15.0001 17.0004 15.4478 17.0004 16V18C17.0004 18.5522 17.4482 18.9999 18.0004 19C18.5525 18.9998 19.0004 18.5521 19.0004 18V16C19.0004 15.4479 18.5525 15.0002 18.0004 15ZM2.1488 16C2.00588 15.0606 2.0576 14.982 2.99939 15.1025C4.01896 15.2329 4.66089 15.4935 5.08337 15.916C5.50592 16.3386 5.76642 16.9802 5.89685 18C6.01367 18.9136 5.88934 18.8989 4.99939 18.7471C3.97532 18.5723 3.30099 18.2766 2.85681 17.7764C2.47828 17.3501 2.26672 16.7751 2.1488 16ZM11.9994 10C13.1039 10 13.9994 10.8955 13.9994 12C13.9994 13.1045 13.1039 14 11.9994 14C10.895 13.9999 9.99939 13.1044 9.99939 12C9.99939 10.8956 10.895 10.0001 11.9994 10ZM4.99939 5.25293C5.88934 5.10107 6.01367 5.08643 5.89685 6C5.76642 7.01977 5.50592 7.66138 5.08337 8.08398C4.66089 8.50653 4.01896 8.7671 2.99939 8.89746C2.0576 9.01801 2.00588 8.93935 2.1488 8C2.26672 7.22487 2.47828 6.6499 2.85681 6.22363C3.30099 5.72342 3.97532 5.4277 4.99939 5.25293ZM18.1029 6C17.9861 5.08652 18.1097 5.10112 18.9994 5.25293C20.0238 5.42772 20.6987 5.72324 21.1429 6.22363C21.5215 6.6499 21.733 7.22486 21.851 8C21.9939 8.93941 21.9415 9.01806 20.9994 8.89746C19.9799 8.76708 19.3379 8.50656 18.9154 8.08398C18.493 7.66138 18.2333 7.0196 18.1029 6Z" fill="black"/>
</svg>
