<svg width="24" height="24" viewBox="0 0 24 24" fill="none" xmlns="http://www.w3.org/2000/svg">
<path d="M9.66302 20.4954C8.30451 19.7916 7.54285 19.397 6.18434 18.6932C4.75488 17.9526 5.01928 17.5241 5.01928 16.0777V12.0538C5.01928 11.2877 4.98006 11.0817 5.60181 10.5448C6.29591 9.94552 6.41136 9.35578 6.68365 8.5329L8.18159 4.00603C8.50713 3.02222 8.45889 3.00006 9.66302 3.00006C11.0344 3.00006 11.8033 3.00006 13.1747 3.00006C14.4399 3.00006 14.347 2.97333 14.0656 4.00603L12.2923 10.5134C12.0949 11.2381 11.9048 11.6866 11.4271 12.3053C10.9071 12.9788 10.8446 13.2524 10.8446 14.0596V20.1016C10.8446 21.271 10.8222 21.0959 9.66302 20.4954ZM6.90395 13.0819C6.59128 13.0165 6.27642 13.1823 6.2007 13.4523C6.12497 13.7223 6.31706 13.9942 6.62973 14.0596L8.95976 14.5468C9.27244 14.6122 9.58729 14.4464 9.66302 14.1764C9.73874 13.9064 9.54666 13.6345 9.23399 13.5691L6.90395 13.0819ZM9.69772 10.3446C10.7618 10.4856 10.9628 10.5448 11.1912 9.763C11.389 9.08616 11.4998 8.70669 11.6976 8.02985C12.0063 6.97313 11.996 7.02413 10.7099 6.97313L9.42838 6.92232C8.47487 6.88452 8.40088 6.95151 8.18159 7.62252C7.96229 8.29352 7.83934 8.66973 7.62005 9.34073C7.40076 10.0117 7.40427 10.0512 8.42344 10.1758C8.92193 10.2367 9.69772 10.3446 9.69772 10.3446Z" fill="black"/>
<path d="M12.0096 20.1016V14.0596C12.0096 13.2524 12.0722 12.9788 12.5922 12.3053C13.0718 11.6841 13.255 11.2426 13.445 10.5134L14.8786 5.012C15.1457 3.987 15.0588 3.98467 16.2526 4.29585C16.789 4.43568 17.0898 4.51409 17.6263 4.65393C18.9323 4.99435 19 4.93076 19 6.08085V17.0836C19 19.1462 18.9818 19.1008 16.6699 19.7662C15.3049 20.1591 14.5397 20.3793 13.1747 20.7722C11.9562 21.1229 12.0096 21.1849 12.0096 20.1016Z" fill="black"/>
</svg>
