<svg width="24" height="24" viewBox="0 0 24 24" fill="none" xmlns="http://www.w3.org/2000/svg">
<path d="M15 14C15 13.5 15 13 14 13H10V15H14C15 15 15 14.5 15 14Z" fill="black"/>
<path fill-rule="evenodd" clip-rule="evenodd" d="M3 12C3 4.5885 4.5885 3 12 3C19.4115 3 21 4.5885 21 12C21 19.4115 19.4115 21 12 21C4.5885 21 3 19.4115 3 12ZM10 7C8.5 7 8 7.5 8 9V15C8 16.5 8.5 16.9998 10.1155 16.9998H13.0285C13.5058 16.9999 13.9786 16.9999 14.3955 16.9652C14.8173 16.9301 15.2787 16.8536 15.6972 16.6444C16.1517 16.4172 16.5058 16.0586 16.7263 15.5624C16.9314 15.101 17 14.5683 17 14C17 13.4317 16.9314 12.899 16.7263 12.4376C16.5058 11.9414 16.1517 11.5828 15.6972 11.3556C15.2788 11.1463 14.8174 11.0699 14.3955 11.0347C13.9788 11 13.5061 11 13.0288 11H10V9H15C15.5523 9 16 8.55228 16 8C16 7.44772 15.5523 7 15 7H10Z" fill="black"/>
</svg>
