<svg width="24" height="24" viewBox="0 0 24 24" fill="none" xmlns="http://www.w3.org/2000/svg">
<path fill-rule="evenodd" clip-rule="evenodd" d="M11.9995 3C17.5837 3 20.9995 6.4158 20.9995 12C20.9995 17.5842 17.5837 21 11.9995 21C8.6029 20.9999 6.01021 19.7354 4.49951 17.4883C3.7586 16.3862 3.99975 16.0001 4.99951 16H6.99951V18C6.99951 18.5522 7.44735 18.9999 7.99951 19C8.55179 19 8.99951 18.5523 8.99951 18V16H11.9995C12.5518 16 12.9995 15.5523 12.9995 15C12.9995 14.4477 12.5518 14 11.9995 14H8.99951V12H11.4995C13.1564 12 14.9995 11.1569 14.9995 8.5C14.9995 5.84315 13.1564 5 11.4995 5H7.99951C7.44735 5.00014 6.99951 5.4478 6.99951 6V10H4.49951C3.3912 9.99994 3.20279 9.64047 3.37744 9C4.4089 5.21758 7.50036 3.00009 11.9995 3ZM6.99951 14H4.49951C3.40426 14 3.0376 13.9999 3.0376 13C2.99963 12.0001 3.35553 12 4.49951 12H6.99951V14ZM11.4995 7C12.0518 7 12.9995 7 12.9995 8.5C12.9995 10 12.0518 10 11.4995 10H8.99951V7H11.4995Z" fill="black"/>
</svg>
