<svg width="24" height="24" viewBox="0 0 24 24" fill="none" xmlns="http://www.w3.org/2000/svg">
<path d="M12 9.52779C12.8262 8.78835 13.8584 8.27448 15 8.08296C15.974 7.91955 16 8 16 7V6.5C16 5.67157 13.7614 5 11 5C8.23858 5 6 5.67157 6 6.5V6.50806C6 6.57973 6.03578 6.70492 6.22453 6.87758C6.4134 7.05036 6.71516 7.23055 7.1328 7.39586C7.96471 7.72514 9.15464 7.95555 10.5164 8.00017C10.7924 8.00922 11.0088 8.24028 10.9997 8.51628C10.9907 8.79227 10.7596 9.00868 10.4836 8.99963C9.04211 8.9524 7.73204 8.70853 6.76477 8.32567C5.84762 7.96265 6 8.03104 6 9.04082C6 10 6 10.0964 7 10.0318C7.32566 10.0108 7.65984 9.99991 8 9.99991C8.70074 9.99991 9.37462 10.0461 10 10.1314C11.352 10.316 11.0017 10.4213 12 9.52779Z" fill="black"/>
<path d="M10 14C10 15.0929 10.2922 16.1175 10.8027 17C11 17.3411 10.9815 17.7465 10 17.8752C9.38754 17.9555 8.71111 18 8 18C5.23858 18 3 17.3284 3 16.5V14.9917C3 14 3.02816 14.0622 4 14.4057C4.93957 14.7378 6.15584 14.9482 7.48362 14.9917C7.75962 15.0007 7.99069 14.7843 7.99973 14.5083C8.00878 14.2323 7.79237 14.0013 7.51638 13.9922C6.15464 13.9476 4.96471 13.7172 4.1328 13.3879C3.71516 13.2226 3.4134 13.0424 3.22453 12.8696C3.03578 12.697 3 12.5718 3 12.5001L3 12.4981C3.00064 12.4222 3.04227 12.2862 3.25818 12.1006C3.47417 11.9149 3.81596 11.725 4.28178 11.5556C5.20932 11.2183 6.52384 10.9999 8 10.9999C8.52281 10.9999 9.02625 11.0273 9.5 11.0779C10.4952 11.1843 10.5625 11.3744 10.3414 12C10.1203 12.6256 10 13.2987 10 14Z" fill="black"/>
<path d="M16 9C13.2386 9 11 11.2386 11 14C11 15.2624 11.4679 16.4156 12.2397 17.2955C13.1561 18.3404 14.501 19 16 19C18.7614 19 21 16.7614 21 14C21 11.2386 18.7614 9 16 9ZM17 13V15C17 15.5523 16.5523 16 16 16C15.4477 16 15 15.5523 15 15V13C15 12.4477 15.4477 12 16 12C16.5523 12 17 12.4477 17 13Z" fill="black"/>
</svg>
