<svg width="24" height="24" viewBox="0 0 24 24" fill="none" xmlns="http://www.w3.org/2000/svg">
<path d="M3 8C3 8.5 3 9 4 9H20C21 9 21 8.5 21 8C21 5 19 5 12 5C5 5 3 5 3 8Z" fill="black"/>
<path d="M5.70337 14.5C5.70337 14.9462 6.06951 15.307 6.52237 15.307C6.97522 15.307 7.34136 14.9462 7.34136 14.5C7.34136 14.0538 6.97522 13.693 6.52237 13.693C6.06951 13.693 5.70337 14.0538 5.70337 14.5Z" fill="black"/>
<path d="M12.1204 14.5095C12.1204 14.8797 12.7275 15.307 13.5465 15.307C14.3558 15.307 14.9725 14.8797 14.9725 14.5095C14.9725 14.1392 14.3654 13.712 13.5465 13.712C12.7275 13.712 12.1204 14.1392 12.1204 14.5095Z" fill="black"/>
<path d="M20.1342 17.8868C21 16.9453 21 15.2075 21 12C21 11.5 21 11 20 11H4C3 11 3 11.5 3 12C3 15.2075 3 16.9453 3.86585 17.8868C4.88962 19 7.12391 19 12 19C16.8761 19 19.1104 19 20.1342 17.8868ZM5 14.5C5 13.6741 5.6841 13 6.52237 13C7.37027 13 8.04473 13.6741 8.04473 14.5C8.04473 15.3259 7.37027 16 6.52237 16C5.6841 16 5 15.3259 5 14.5ZM11.4074 14.5C11.4074 13.6741 12.3613 13 13.5465 13C14.722 13 15.6855 13.6741 15.6855 14.5C15.6855 15.3259 14.7316 16 13.5465 16C12.3613 16 11.4074 15.3259 11.4074 14.5ZM18.287 13.4177C18.287 13.2278 18.4508 13.0665 18.6435 13.0665C18.8362 13.0665 19 13.2278 19 13.4177V15.8481C19 15.9335 18.9036 15.981 18.8362 15.9241L16.9092 14.4146V15.5823C16.9092 15.7722 16.7454 15.9335 16.5526 15.9335C16.3599 15.9335 16.1961 15.7722 16.1961 15.5823V13.1614C16.1961 13.0759 16.2925 13.0285 16.3599 13.0854L18.287 14.5949V13.4177ZM9.63455 15.2405H10.8486C11.0413 15.2405 11.2051 15.4019 11.2051 15.5918C11.2051 15.7816 11.0413 15.943 10.8486 15.943H8.41087C8.32416 15.943 8.27598 15.8481 8.32416 15.7816L9.87543 13.769H8.86373C8.67102 13.769 8.50723 13.6076 8.50723 13.4177C8.50723 13.2278 8.67102 13.0665 8.86373 13.0665H11.0991C11.1762 13.0665 11.2244 13.1614 11.1762 13.2278L9.63455 15.2405Z" fill="black"/>
</svg>
