<svg width="24" height="24" viewBox="0 0 24 24" fill="none" xmlns="http://www.w3.org/2000/svg">
<path fill-rule="evenodd" clip-rule="evenodd" d="M20.2773 7.29404C20.3816 7.29187 20.4958 7.33817 20.5693 7.41221C20.6576 7.50138 20.6831 7.64266 20.7324 7.9249C20.9254 9.02934 21 10.3654 21 11.9757C21 17.6978 20.055 20.2181 16.2226 20.9503C15.9868 20.9953 15.8685 21.0185 15.7666 20.9825C15.6803 20.952 15.6009 20.8858 15.5547 20.8067C15.5002 20.7133 15.5 20.5868 15.5 20.3351V18.7481C15.4999 17.3107 15.1564 15.3781 14.6885 13.8663C14.4194 12.997 14.2841 12.5624 13.8877 12.2696C13.4908 11.9768 12.9934 11.9757 12 11.9757H11.9961C11.0057 11.9757 10.5095 11.9764 10.1133 12.2687C9.71719 12.5609 9.582 12.9955 9.31346 13.8624L9.31248 13.8663C8.84421 15.3781 8.50003 17.3106 8.49998 18.7481V20.3351C8.49998 20.5868 8.49973 20.7133 8.4453 20.8067C8.39911 20.8858 8.31963 20.952 8.23338 20.9825C8.13146 21.0185 8.01315 20.9953 7.77733 20.9503C3.94492 20.2181 2.99998 17.6978 2.99998 11.9757C2.99999 10.3654 3.07458 9.02934 3.26756 7.9249C3.31685 7.64282 3.34148 7.50138 3.42967 7.41221C3.50318 7.33798 3.61826 7.29187 3.72264 7.29404C3.84805 7.2967 3.97084 7.3865 4.21678 7.56553L5.9492 8.82627C6.58807 9.29122 7.47763 9.18067 7.98338 8.57334L8.66893 7.74912C8.79902 7.59283 8.86465 7.51478 8.93163 7.5001C8.98986 7.48739 9.05074 7.50136 9.09764 7.53818C9.15145 7.5806 9.17633 7.67907 9.22557 7.87608L9.62108 9.45908C9.80291 10.1866 9.89405 10.5509 10.165 10.7628C10.4363 10.9747 10.8117 10.9747 11.5615 10.9747H12.4385C13.1884 10.9747 13.5637 10.9748 13.8349 10.7628C14.1059 10.5508 14.1972 10.1867 14.3789 9.45908L14.7734 7.87608C14.8226 7.67887 14.8475 7.57968 14.9014 7.53721C14.9483 7.50032 15.01 7.48635 15.0683 7.49912C15.1352 7.51403 15.2003 7.5922 15.3301 7.74815L16.0166 8.57334C16.5224 9.18066 17.4119 9.29124 18.0508 8.82627L19.7832 7.56553C20.0291 7.38648 20.1519 7.29668 20.2773 7.29404ZM9.95311 3.01768C10.3834 2.99312 10.5983 2.98165 10.7148 3.06846C10.8141 3.14241 10.8757 3.26491 10.876 3.38877C10.8761 3.53412 10.7355 3.7031 10.4541 4.04111L7.21483 7.93272C7.0462 8.13496 6.74997 8.17166 6.53709 8.0167L4.23436 6.33994C4.08541 6.23152 4.01079 6.17714 3.96776 6.09873C3.93267 6.03461 3.91385 5.94598 3.91991 5.87315C3.92739 5.78399 3.96796 5.71235 4.04979 5.57041C5.0283 3.87351 6.82258 3.19636 9.95311 3.01768ZM13.2851 3.06846C13.4017 2.98167 13.6166 2.99312 14.0469 3.01768C17.1774 3.19636 18.9717 3.87349 19.9502 5.57041C20.032 5.71235 20.0726 5.78399 20.0801 5.87315C20.0861 5.94598 20.0673 6.03462 20.0322 6.09873C19.9892 6.17714 19.9145 6.23153 19.7656 6.33994L17.4629 8.0167C17.25 8.17165 16.9538 8.13494 16.7851 7.93272L13.5459 4.04111C13.2645 3.70308 13.1239 3.53413 13.124 3.38877C13.1243 3.26491 13.1859 3.14241 13.2851 3.06846Z" fill="black"/>
</svg>
