<svg width="24" height="24" viewBox="0 0 24 24" fill="none" xmlns="http://www.w3.org/2000/svg">
<path d="M21 12C21 17.5842 17.5842 21 12 21C6.4158 21 3 17.5842 3 12C3 6.4158 6.4158 3 12 3C17.5842 3 21 6.4158 21 12ZM10.8575 7.5145C11.1417 7.04092 10.9881 6.42666 10.5145 6.14251C10.0409 5.85836 9.42669 6.01192 9.14254 6.4855C7.10597 9.87979 7.10597 14.1202 9.14254 17.5145C9.42669 17.9881 10.0409 18.1416 10.5145 17.8575C10.9881 17.5733 11.1417 16.9591 10.8575 16.4855C9.20097 13.7246 9.20097 10.2754 10.8575 7.5145ZM13.8683 8.99614C14.1423 8.51662 13.9757 7.90577 13.4962 7.63176C13.0167 7.35775 12.4058 7.52434 12.1318 8.00386C10.7168 10.4801 10.7168 13.5199 12.1318 15.9961C12.4058 16.4757 13.0167 16.6423 13.4962 16.3682C13.9757 16.0942 14.1423 15.4834 13.8683 15.0039C12.8047 13.1425 12.8047 10.8575 13.8683 8.99614ZM16.5547 9.66795C16.0952 9.3616 15.4743 9.48577 15.168 9.9453C14.3385 11.1895 14.3385 12.8105 15.168 14.0547C15.4743 14.5142 16.0952 14.6384 16.5547 14.332C17.0142 14.0257 17.1384 13.4048 16.8321 12.9453C16.4504 12.3729 16.4504 11.6271 16.8321 11.0547C17.1384 10.5952 17.0142 9.9743 16.5547 9.66795Z" fill="black"/>
</svg>
