<svg width="24" height="24" viewBox="0 0 24 24" fill="none" xmlns="http://www.w3.org/2000/svg">
<path d="M12 4C4.5885 4 3 4.5885 3 12C3 19.4115 4.5885 20 12 20C16.5 20 18.4836 19.7482 19.3581 17.5C19.747 16.5 19.514 16 18 16H14C11.7909 16 10 14.2091 10 12C10 9.79086 11.7909 8 14 8H18C19.514 8 19.747 7.5 19.3581 6.5C18.4836 4.25178 16.5 4 12 4Z" fill="black"/>
<path d="M14 9H19C20 9 21 9.5 21 12C21 14.5 20 15 19 15H14C12.3431 15 11 13.6569 11 12C11 10.3431 12.3431 9 14 9ZM15 12C15 11.4477 14.5523 11 14 11C13.4477 11 13 11.4477 13 12C13 12.5523 13.4477 13 14 13C14.5523 13 15 12.5523 15 12Z" fill="black"/>
</svg>
