<svg width="24" height="24" viewBox="0 0 24 24" fill="none" xmlns="http://www.w3.org/2000/svg">
<path fill-rule="evenodd" clip-rule="evenodd" d="M16.0002 12C19.1022 12.0002 21.0001 13.898 21.0002 17C21 20.1019 19.1021 21.9998 16.0002 22C12.898 22 11.0004 20.102 11.0002 17C11.0003 13.8978 12.898 12 16.0002 12ZM15.4446 14.2227C15.1377 14.2227 14.8889 14.4715 14.8889 14.7783V16.4443H14.3332C14.0265 16.4443 13.7777 16.6933 13.7776 17C13.7778 17.3066 14.0266 17.5557 14.3332 17.5557H14.8889V18.1113H14.3332C14.0264 18.1113 13.7776 18.3602 13.7776 18.667C13.7779 18.9735 14.0266 19.2226 14.3332 19.2227H14.8889V19.7783C14.8893 20.0848 15.138 20.334 15.4446 20.334C15.751 20.3338 15.9998 20.0847 16.0002 19.7783V19.2227H17.6662C17.9728 19.2226 18.2216 18.9735 18.2219 18.667C18.2219 18.3602 17.973 18.1114 17.6662 18.1113H16.0002V17.5557H17.1106C18.0308 17.5556 18.7773 16.8089 18.7776 15.8887C18.7773 14.9685 18.0308 14.2227 17.1106 14.2227H15.4446ZM12.0002 3C13.8364 3.00007 15.3992 3.40239 16.4885 4.48145C17.5797 5.56248 18.0002 7.12801 18.0002 9H18.884C19.9594 9 20.498 8.99995 20.7971 9.3457C21.096 9.69147 21.0183 10.2241 20.8635 11.2881C20.7375 12.1545 20.1796 12.1996 18.884 11.5938C18.1248 11.2388 17.2613 11.0435 16.3264 11.0068L16.0002 11C14.2437 11 12.7183 11.5417 11.6301 12.6299C10.5421 13.718 10.0003 15.2436 10.0002 17C10.0002 17.4622 10.0383 17.9086 10.1135 18.335C10.3189 19.4999 9.91905 20.0337 8.50022 19.9512C7.08097 19.8685 6.15718 19.6425 5.44358 19.0254C4.31667 18.0505 3.88638 16.4172 3.41135 13.1514L3.13987 11.2881C2.98507 10.2238 2.90814 9.69146 3.20725 9.3457C3.50641 9.00022 4.04421 9 5.11936 9H6.00022C6.00022 7.128 6.41972 5.56248 7.51096 4.48145C8.60037 3.40229 10.1638 3 12.0002 3ZM17.1106 15.334C17.4172 15.3341 17.666 15.5821 17.6662 15.8887C17.666 16.1952 17.4172 16.4443 17.1106 16.4443H16.0002V15.334H17.1106ZM12.0002 5C10.4101 5 9.47214 5.35362 8.91819 5.90234C8.36622 6.44928 8.00022 7.384 8.00022 9H16.0002C16.0002 7.38396 15.6333 6.44928 15.0813 5.90234C14.5274 5.35365 13.5901 5.00007 12.0002 5Z" fill="black"/>
</svg>
