<svg width="24" height="24" viewBox="0 0 24 24" fill="none" xmlns="http://www.w3.org/2000/svg">
<path d="M7.26157 6.84739C8.50937 5.69897 10.1728 5 12 5C15.866 5 19 8.13401 19 12C19 12.8284 19.6716 13.5 20.5 13.5C21.3284 13.5 22 12.8284 22 12C22 6.47715 17.5228 2 12 2C9.34342 2 6.92858 3.03703 5.13911 4.72492L4.70711 4.29292C4.42111 4.00692 3.99099 3.92137 3.61732 4.07615C3.24364 4.23093 3 4.59557 3 5.00003V8.00003C3 8.55231 3.44772 9.00003 4 9.00003H7C7.40446 9.00003 7.7691 8.75639 7.92388 8.38271C8.07866 8.00904 7.9931 7.57892 7.70711 7.29292L7.26157 6.84739Z" fill="black"/>
<path d="M5 12C5 11.1716 4.32843 10.5 3.5 10.5C2.67157 10.5 2 11.1716 2 12C2 17.5228 6.47715 22 12 22C14.6569 22 17.0713 20.9631 18.8608 19.275L19.2929 19.7071C19.5789 19.9931 20.009 20.0786 20.3827 19.9239C20.7564 19.7691 21 19.4044 21 19V16C21 15.4477 20.5523 15 20 15H17C16.5955 15 16.2309 15.2436 16.0761 15.6173C15.9213 15.991 16.0069 16.4211 16.2929 16.7071L16.7385 17.1527C15.4908 18.3009 13.8269 19 12 19C8.13401 19 5 15.866 5 12Z" fill="black"/>
<path d="M11 7C10.4477 7 10 7.44772 10 8V11H9C8.44771 11 8 11.4477 8 12C8 12.5523 8.44771 13 9 13H10V14H9C8.44771 14 8 14.4477 8 15C8 15.5523 8.44771 16 9 16H10V17C10 17.5523 10.4477 18 11 18C11.5523 18 12 17.5523 12 17V16H14C14.5523 16 15 15.5523 15 15C15 14.4477 14.5523 14 14 14H12V13H14C15.6569 13 17 11.6569 17 10C17 8.34315 15.6569 7 14 7H11ZM12 11V9H14C14.5523 9 15 9.44772 15 10C15 10.5523 14.5523 11 14 11H12Z" fill="black"/>
</svg>
