<svg width="24" height="24" viewBox="0 0 24 24" fill="none" xmlns="http://www.w3.org/2000/svg">
<path d="M12 21C14.1028 21 15.8981 20.5156 17.3194 19.6135C17.7959 19.311 17.8007 19.2149 17.3788 18.793C16.7534 18.1676 15.6189 17.0331 14.8007 16.2149C14.6097 16.0239 14.5701 16 14.3047 16H12V17C12 17.5523 11.5523 18 11 18C10.4477 18 10 17.5523 10 17V16H9C8.44771 16 8 15.5523 8 15C8 14.4477 8.44771 14 9 14H10V13H9C8.44771 13 8 12.5523 8 12C8 11.4477 8.44771 11 9 11C9 11 9.17851 11 9.29289 11C9.59387 11 9.60969 11.0239 9.39836 10.8126C9.39836 10.8126 5.58579 7 5.18352 6.59773C4.86321 6.27742 4.71488 6.15863 4.37042 6.70603C3.47861 8.12324 3 9.90971 3 12C3 17.5842 6.4158 21 12 21Z" fill="black"/>
<path d="M19.6199 17.3093C20.5179 15.8896 21 14.0978 21 12C21 6.4158 17.5842 3 12 3C9.85999 3 8.03844 3.50165 6.60554 4.43475C6.21452 4.68938 6.2034 4.78919 6.60554 5.19133C10.6829 9.26866 14.762 13.3478 18.8399 17.4257C19.1759 17.7616 19.3207 17.7823 19.6199 17.3093ZM15.7135 12.4629C15.4987 12.6125 15.4613 12.6448 15.2793 12.4629L14.0801 11.2636C13.9297 11.1406 13.8329 11.0441 14.172 10.9853C14.6423 10.9037 15 10.4936 15 10C15 9.44772 14.5523 9 14 9C14 9 12.8239 9 12.0703 9C11.8606 9 11.8181 9.00164 11.6739 8.85738L10.3653 7.54879C10.2172 7.40067 10.19 7.37138 10.3653 7.22723C10.5379 7.08525 10.759 7 11 7H14C15.6569 7 17 8.34315 17 10C17 11.0198 16.4911 11.9208 15.7135 12.4629Z" fill="black"/>
<path d="M12 14V13.4142L12.5858 14H12Z" fill="black"/>
</svg>
