<svg width="24" height="24" viewBox="0 0 24 24" fill="none" xmlns="http://www.w3.org/2000/svg">
<path d="M5 13C6.5486 13 6.89768 13.3316 6.97656 14.6172C6.99284 14.7133 7 14.8388 7 15C7 15.2761 7.22387 15.5 7.5 15.5C7.77614 15.5 8 15.2761 8 15C8 14.5 8.00001 14.25 8.125 14.125C8.25 14 8.50002 14 9 14C11.9997 14 14.9995 14.7139 15 16.6455C15 16.9995 14.4737 17 14 17H11.5C11.2239 17 11 17.2239 11 17.5C11 17.7761 11.2248 18 11.501 18H14.0352C14.3801 18 14.6926 17.9996 14.9404 17.9629C15.2108 17.9228 15.5056 17.8262 15.7129 17.5498C16.1253 17.0001 16.4746 16.8193 17.5479 16.5889C19.6647 16.1344 22 15.6333 22 17C22 18 16 22 12 22C10.3837 22 8.22318 21.5647 6.83789 21.2217C6.62539 21.8221 6.13437 22 5 22C3 22 3 21.4469 3 19V16C3 13.553 3 13 5 13ZM12.8896 2C13.1956 2 13.8061 2.00047 14.1113 2.06152C14.7308 2.18548 15.0282 2.30552 16.25 3.52734C17.4722 4.74957 17.5963 5.06453 17.7168 5.66699C17.7778 5.97312 17.7798 7.34728 17.7764 7.65332C17.7764 8.16397 17.7758 8.4311 17.6426 8.57031C17.497 8.72215 17.1925 8.72266 16.5557 8.72266C14.8683 8.72266 13.5002 10.09 13.5 11.7773C13.5 12.694 13.4998 13 12.3584 13C10.3662 12.9965 9.26727 12.9519 8.68555 12.3936C8.00028 11.7357 8 10.3643 8 7.50391C8 4.64337 8.00016 3.26917 8.68652 2.60938C9.3208 1.99996 10.5422 2.00002 12.8896 2ZM17.957 10.123C18.1957 9.88474 18.5827 9.88456 18.8213 10.123C19.0598 10.3616 19.0596 10.7486 18.8213 10.9873L16.9873 12.8213C16.7486 13.0596 16.3616 13.0598 16.123 12.8213L14.9014 11.5986C14.6627 11.36 14.6627 10.973 14.9014 10.7344C15.14 10.4959 15.527 10.4958 15.7656 10.7344L16.5557 11.5244L17.957 10.123ZM11.0557 8.11133C10.7182 8.11133 10.4443 8.38515 10.4443 8.72266C10.4446 9.05996 10.7183 9.33301 11.0557 9.33301H12.8887C13.226 9.33301 13.4998 9.05996 13.5 8.72266C13.5 8.38515 13.2262 8.11133 12.8887 8.11133H11.0557ZM11.0557 5.66699C10.7183 5.66699 10.4446 5.94004 10.4443 6.27734C10.4443 6.61485 10.7182 6.88867 11.0557 6.88867H14.7227C15.06 6.88844 15.333 6.61471 15.333 6.27734C15.3328 5.94018 15.0598 5.66723 14.7227 5.66699H11.0557Z" fill="black"/>
</svg>
