<svg width="24" height="24" viewBox="0 0 24 24" fill="none" xmlns="http://www.w3.org/2000/svg">
<path d="M4 9C3 9 3 8.5 3 8C3 5 5 5 12 5C19 5 21 5 21 8C21 8.5 21 9 20 9H4Z" fill="black"/>
<path d="M20.75 12.75C20.9292 12.5708 20.9799 12.2632 20.9943 11.7352C20.9682 11.3375 20.8215 11 20 11H4C3 11 3 11.5 3 12C3 15.2075 3 16.9453 3.86585 17.8868C4.88962 19 7.12391 19 12 19C13.5 19 15 19 15 17C15 15.25 16 13 19 13C20 13 20.5 13 20.75 12.75Z" fill="black"/>
<path d="M19 15C19 14.4477 18.5523 14 18 14C17.4477 14 17 14.4477 17 15V19C17 19.5523 17.4477 20 18 20C18.5523 20 19 19.5523 19 19V18.4142L20.2929 19.7071C20.6834 20.0976 21.3166 20.0976 21.7071 19.7071C22.0976 19.3166 22.0976 18.6834 21.7071 18.2929L20.4142 17L21.7071 15.7071C22.0976 15.3166 22.0976 14.6834 21.7071 14.2929C21.3166 13.9024 20.6834 13.9024 20.2929 14.2929L19 15.5858V15Z" fill="black"/>
</svg>
