<svg width="24" height="24" viewBox="0 0 24 24" fill="none" xmlns="http://www.w3.org/2000/svg">
<path d="M8.65885 5.73313C9.61065 5.26778 10.7354 5 12 5C13.2646 5 14.3893 5.26778 15.3411 5.73313C16.0854 6.09701 16.9837 5.78866 17.3476 5.04443C17.7114 4.30019 17.4031 3.40189 16.6589 3.03802C15.2716 2.35976 13.6925 2 12 2C10.3075 2 8.72838 2.35976 7.34115 3.03802C6.59691 3.40189 6.28857 4.30019 6.65244 5.04443C7.01632 5.78866 7.91462 6.09701 8.65885 5.73313Z" fill="black"/>
<path d="M5.73313 8.65885C6.09701 7.91462 5.78866 7.01632 5.04443 6.65244C4.30019 6.28857 3.40189 6.59691 3.03802 7.34115C2.35976 8.72838 2 10.3075 2 12C2 13.6925 2.35976 15.2716 3.03802 16.6589C3.40189 17.4031 4.30019 17.7114 5.04443 17.3476C5.78866 16.9837 6.09701 16.0854 5.73313 15.3411C5.26778 14.3893 5 13.2646 5 12C5 10.7354 5.26778 9.61065 5.73313 8.65885Z" fill="black"/>
<path d="M20.962 7.34115C20.5981 6.59691 19.6998 6.28857 18.9556 6.65244C18.2113 7.01632 17.903 7.91462 18.2669 8.65885C18.7322 9.61065 19 10.7354 19 12C19 13.2646 18.7322 14.3893 18.2669 15.3411C17.903 16.0854 18.2113 16.9837 18.9556 17.3476C19.6998 17.7114 20.5981 17.4031 20.962 16.6589C21.6402 15.2716 22 13.6925 22 12C22 10.3075 21.6402 8.72838 20.962 7.34115Z" fill="black"/>
<path d="M8.65885 18.2669C7.91462 17.903 7.01632 18.2113 6.65244 18.9556C6.28857 19.6998 6.59691 20.5981 7.34115 20.962C8.72838 21.6402 10.3075 22 12 22C13.6925 22 15.2716 21.6402 16.6589 20.962C17.4031 20.5981 17.7114 19.6998 17.3476 18.9556C16.9837 18.2113 16.0854 17.903 15.3411 18.2669C14.3893 18.7322 13.2646 19 12 19C10.7354 19 9.61065 18.7322 8.65885 18.2669Z" fill="black"/>
<path d="M11 7C10.4477 7 10 7.44772 10 8V11H9C8.44771 11 8 11.4477 8 12C8 12.5523 8.44771 13 9 13H10V14H9C8.44771 14 8 14.4477 8 15C8 15.5523 8.44771 16 9 16H10V17C10 17.5523 10.4477 18 11 18C11.5523 18 12 17.5523 12 17V16H15C15.5523 16 16 15.5523 16 15C16 14.4477 15.5523 14 15 14H12V13H14C15.6569 13 17 11.6569 17 10C17 8.34315 15.6569 7 14 7H11ZM12 11V9H14C14.5523 9 15 9.44772 15 10C15 10.5523 14.5523 11 14 11H12Z" fill="black"/>
</svg>
