<svg width="24" height="24" viewBox="0 0 24 24" fill="none" xmlns="http://www.w3.org/2000/svg">
<path d="M13.1573 3.01475C12.7883 3.00469 12.4027 3 12 3C7.77119 3 5.43809 3.51714 4.21412 5.338C3.76153 6.0113 3.72603 6.08339 4.49986 5.83937C5.92123 5.39116 7.47969 6.08239 8.08376 7.48027C8.72863 8.97254 8.04167 10.705 6.54939 11.3499C5.52646 11.792 4.39066 11.6082 3.56967 10.9682C3.34596 10.7938 3.01741 10.5233 3.00552 11.274C3.00179 11.5096 3 11.7515 3 12C3 19.4115 4.5885 21 12 21C15.7843 21 18.0505 20.5859 19.3623 19.1939C20.4921 17.9949 19.8805 17.8106 19.2201 18.0299C18.8255 18.161 18.3689 18.2711 17.9079 18.3823L15.0949 19.0612C13.5349 19.4377 12.9379 19.066 12.5955 17.6008L11.2259 11.7402C10.8835 10.275 11.2522 9.67007 12.7007 9.32049L17.5292 8.15522C18.0625 8.0265 18.597 8.35948 18.7231 8.89894C18.8492 9.4384 18.519 9.98006 17.9857 10.1088L13.1573 11.274L13.6138 13.2276L16.5387 12.5217C16.9995 12.4105 17.456 12.3003 17.8664 12.2371C18.2818 12.1731 18.7448 12.1403 19.1967 12.2472C19.6875 12.3632 20.1112 12.631 20.4375 13.0642C20.6148 13.2998 21 13.5 21 12C21 7.12954 20.314 4.77371 17.7403 3.73082C17.354 3.57429 16.9343 3.39334 16.9821 4.02728C16.9894 4.12316 17.0376 4.2115 17.1341 4.38819C17.4656 4.99532 17.644 5.33384 17.5167 5.54906C17.3415 5.84525 16.8853 5.76491 16.5252 5.7015C16.4167 5.68239 16.3169 5.66482 16.2362 5.65955L16.1826 5.65597C16.0248 5.64529 15.9372 5.63936 15.8588 5.66953C15.7803 5.6997 15.7193 5.76273 15.6093 5.87645L15.5719 5.91499C15.5155 5.97299 15.4532 6.05287 15.3855 6.13974C15.1606 6.42806 14.8758 6.79334 14.5473 6.69086C14.3086 6.61639 14.2156 6.24501 14.055 5.57218C14.0082 5.37638 13.9848 5.27847 13.926 5.20245C13.8625 5.12042 13.7731 5.07694 13.5786 4.98725C13.5125 4.95677 13.4501 4.9283 13.3912 4.90147C12.8971 4.6762 12.6557 4.56613 12.6279 4.34733C12.6257 4.32943 12.6245 4.31141 12.6244 4.29338C12.6232 4.0468 12.9129 3.87031 13.4924 3.51734C14.1751 3.10141 13.7991 3.03225 13.1573 3.01475ZM7.88324 4.54296C8.27093 4.5165 8.65524 4.56782 9.015 4.6879C9.78009 4.94328 10.4399 5.51229 10.7858 6.31259C11.1316 7.1129 11.0938 7.98337 10.7555 8.71557C10.5964 9.05986 10.3704 9.37492 10.0855 9.63913C9.78746 9.91545 9.32186 9.89787 9.04554 9.59985C8.76921 9.30183 8.7868 8.83623 9.08482 8.5599C9.22638 8.42864 9.33951 8.27132 9.41948 8.09825C9.58963 7.73 9.60763 7.29647 9.43475 6.89641C9.26187 6.49636 8.93381 6.21238 8.54902 6.08394C8.36818 6.02357 8.17608 5.99815 7.98347 6.0113C7.578 6.03898 7.22686 5.73271 7.19918 5.32724C7.1715 4.92178 7.47777 4.57064 7.88324 4.54296ZM9.51107 16.1767L9.50911 16.1831C9.41431 16.4935 9.41262 16.4991 9.85255 16.4684C10.2795 16.4387 10.8783 16.4222 11.0344 16.5458C11.3201 16.772 10.5247 17.7945 10.0484 18.2757C8.91188 19.424 8.34125 19.4346 6.54075 18.0093C4.74025 16.584 4.61897 16.0272 5.47646 14.6564C5.83552 14.0824 6.64816 13.0735 6.93391 13.2998C7.09102 13.4241 7.20978 13.9899 7.27817 14.4091C7.35109 14.856 7.35665 14.8645 7.64274 14.6977C8.16222 14.3948 9.21388 13.8494 9.595 14.1511C9.97611 14.4528 9.68668 15.6016 9.51107 16.1767Z" fill="black"/>
<path d="M19.129 14.9924C19.0148 14.504 18.9007 14.0156 17.935 14.2487L14.0723 15.1809L14.5288 17.1345L18.3916 16.2023C19.3573 15.9692 19.2431 15.4808 19.129 14.9924Z" fill="black"/>
</svg>
