<svg width="24" height="24" viewBox="0 0 24 24" fill="none" xmlns="http://www.w3.org/2000/svg">
<path d="M16.0003 11.9995C19.1024 11.9996 21.0002 13.8974 21.0003 16.9995C21.0003 20.1017 19.1025 21.9994 16.0003 21.9995C12.898 21.9995 11.0003 20.1018 11.0003 16.9995C11.0004 13.8973 12.8981 11.9995 16.0003 11.9995ZM11.9984 3.00146C13.4983 3.00147 19.9983 10.0014 19.9984 11.0015C19.9983 12.0634 18.465 11.3991 18.0003 11.2661C17.3805 11.0889 16.7092 10.9995 16.0003 10.9995C14.2439 10.9995 12.7183 11.5414 11.6302 12.6294C10.5421 13.7175 10.0004 15.243 10.0003 16.9995C10.0003 18.1095 10.2167 19.1273 10.6507 20.0005C10.9533 20.6095 10.9078 21.0301 10.0003 20.9399C9.34391 20.8747 8.90355 20.7316 8.58624 20.4146C8.0005 19.8288 8.00031 18.8858 8.00031 17.0005V12.0015C8.00031 12.0015 3.99836 12.0015 3.99835 11.0015C3.99838 10.0014 10.4984 3.00147 11.9984 3.00146ZM15.4446 14.2222C15.1378 14.2222 14.889 14.471 14.889 14.7778V16.4438H14.3333C14.0266 16.4439 13.7778 16.6928 13.7776 16.9995C13.7776 17.3063 14.0265 17.5552 14.3333 17.5552H14.889V18.1108H14.3333C14.0265 18.1109 13.7777 18.3597 13.7776 18.6665C13.7777 18.9733 14.0265 19.2222 14.3333 19.2222H14.889V19.7778C14.8891 20.0845 15.1379 20.3335 15.4446 20.3335C15.7513 20.3334 16.0001 20.0845 16.0003 19.7778V19.2222H17.6663C17.9731 19.2222 18.2219 18.9733 18.222 18.6665C18.222 18.3597 17.9731 18.1108 17.6663 18.1108H16.0003V17.5552H17.1107C18.0311 17.5552 18.7776 16.8087 18.7776 15.8882C18.7774 14.9679 18.031 14.2222 17.1107 14.2222H15.4446ZM17.1107 15.3335C17.4173 15.3335 17.6661 15.5816 17.6663 15.8882C17.6663 16.195 17.4175 16.4438 17.1107 16.4438H16.0003V15.3335H17.1107Z" fill="black"/>
</svg>
