<svg width="24" height="24" viewBox="0 0 24 24" fill="none" xmlns="http://www.w3.org/2000/svg">
<path d="M13 3C12.4477 3 12 3.44772 12 4V6H11C10.4477 6 10 6.44772 10 7C10 7.55228 10.4477 8 11 8H12V9H11C10.4477 9 10 9.44772 10 10C10 10.5523 10.4477 11 11 11H12C12 11.5523 12.4477 12 13 12C13.5523 12 14 11.5523 14 11H16C16.5523 11 17 10.5523 17 10C17 9.44772 16.5523 9 16 9H14V8H15.5C16.8807 8 18 6.88071 18 5.5C18 4.11929 16.8807 3 15.5 3H13ZM15.5 6H14V5H15.5C15.7761 5 16 5.22386 16 5.5C16 5.77614 15.7761 6 15.5 6Z" fill="black"/>
<path d="M2 17V14C2 11.553 2 11 4 11C5.54866 11 5.89815 11.3316 5.97701 12.6173C5.99329 12.7134 6.00003 12.8388 6.00003 13C6.00003 13.2762 6.22389 13.5 6.50003 13.5C6.77617 13.5 7.00003 13.2762 7.00003 13C7.00003 12.5 7.00003 12.25 7.12503 12.125C7.25003 12 7.50003 12 8.00003 12C11 12 14 12.714 14 14.646C14 15 13.4737 15 13 15H10.5001C10.2239 15 10 15.2239 10 15.5C10 15.7762 10.2247 16 10.5008 16L13.0347 16C13.3798 16.0001 13.6926 16.0001 13.9405 15.9634C14.2109 15.9233 14.5052 15.8264 14.7125 15.55C15.125 15 15.4745 14.8195 16.5481 14.589C18.665 14.1345 21 13.6333 21 15C21 16 15 20 11 20C9.38371 20 7.22314 19.5646 5.83785 19.2216C5.62536 19.8221 5.13439 20 4 20C2 20 2 19.4469 2 17Z" fill="black"/>
</svg>
