<svg width="24" height="24" viewBox="0 0 24 24" fill="none" xmlns="http://www.w3.org/2000/svg">
<path d="M4 9C3 9 3 8.5 3 8C3 5 5 5 12 5C19 5 21 5 21 8C21 8.5 21 9 20 9H4Z" fill="black"/>
<path d="M20.75 12.75C20.9292 12.5708 20.9799 12.2632 20.9943 11.7352C20.9682 11.3375 20.8215 11 20 11H4C3 11 3 11.5 3 12C3 15.2075 3 16.9453 3.86585 17.8868C4.88962 19 7.12391 19 12 19C13.5 19 15 19 15 17C15 14 16 13 19 13C20 13 20.5 13 20.75 12.75Z" fill="black"/>
<path d="M22 17C22 18.6569 20.6569 20 19 20C17.3431 20 16 18.6569 16 17C16 15.3431 17.3431 14 19 14C20.6569 14 22 15.3431 22 17ZM20 17C20 16.4477 19.5523 16 19 16C18.4477 16 18 16.4477 18 17C18 17.5523 18.4477 18 19 18C19.5523 18 20 17.5523 20 17Z" fill="black"/>
</svg>
