<svg width="24" height="24" viewBox="0 0 24 24" fill="none" xmlns="http://www.w3.org/2000/svg">
<path d="M7.41784 10.4334C7.66058 10.0693 7.8861 10 8.00001 10C8.11391 10 8.33943 10.0693 8.58217 10.4334C8.82025 10.7905 9.00001 11.3415 9.00001 12C9.00001 12.6585 8.82025 13.2095 8.58217 13.5666C8.33943 13.9307 8.11391 14 8.00001 14C7.8861 14 7.66058 13.9307 7.41784 13.5666C7.17976 13.2095 7.00001 12.6585 7.00001 12C7.00001 11.3415 7.17976 10.7905 7.41784 10.4334Z" fill="black"/>
<path d="M21 12C21 17.5842 17.5842 21 12 21C6.4158 21 3 17.5842 3 12C3 6.4158 6.4158 3 12 3C17.5842 3 21 6.4158 21 12ZM5.75374 9.32398C5.26796 10.0526 5.00001 11.0017 5.00001 12C5.00001 12.9983 5.26796 13.9474 5.75374 14.676C6.23486 15.3977 7.00934 16 8.00001 16C8.99067 16 9.76515 15.3977 10.2463 14.676C10.732 13.9474 11 12.9983 11 12C11 11.0017 10.732 10.0526 10.2463 9.32398C9.76515 8.6023 8.99067 8 8.00001 8C7.00934 8 6.23486 8.6023 5.75374 9.32398ZM12 10C12 10.5523 12.4477 11 13 11C13.5523 11 14 10.5523 14 10C14 9.44772 13.5523 9 13 9C12.4477 9 12 9.44772 12 10ZM17 14C16.4477 14 16 14.4477 16 15C16 15.5523 16.4477 16 17 16C17.5523 16 18 15.5523 18 15C18 14.4477 17.5523 14 17 14ZM17.6247 9.21913C17.1934 8.87412 16.5641 8.94404 16.2191 9.37531L12.2191 14.3753C11.8741 14.8066 11.944 15.4359 12.3753 15.7809C12.8066 16.1259 13.4358 16.056 13.7809 15.6247L17.7809 10.6247C18.1259 10.1934 18.0559 9.56414 17.6247 9.21913Z" fill="black"/>
</svg>
