<svg width="24" height="24" viewBox="0 0 24 24" fill="none" xmlns="http://www.w3.org/2000/svg">
<path d="M10.6975 3.80498C10.9442 3.31164 11.4484 3 12 3C12.5516 3 13.0558 3.31164 13.3025 3.80498C13.9932 5.18635 14.5642 7.21125 15.6765 8.3235C16.7888 9.43575 18.8136 10.0068 20.195 10.6975C20.6884 10.9442 21 11.4484 21 12C21 12.5516 20.6884 13.0558 20.195 13.3025C18.8136 13.9932 16.7887 14.5642 15.6765 15.6765C14.5642 16.7887 13.9932 18.8136 13.3025 20.195C13.0558 20.6884 12.5516 21 12 21C11.4484 21 10.9442 20.6884 10.6975 20.195C10.0068 18.8136 9.43575 16.7888 8.3235 15.6765C7.21125 14.5642 5.18635 13.9932 3.80498 13.3025C3.31164 13.0558 3 12.5516 3 12C3 11.4484 3.31164 10.9442 3.80498 10.6975C5.18635 10.0068 7.21125 9.43575 8.3235 8.3235C9.43575 7.21125 10.0068 5.18635 10.6975 3.80498Z" fill="black"/>
</svg>
