<svg width="24" height="24" viewBox="0 0 24 24" fill="none" xmlns="http://www.w3.org/2000/svg">
<path d="M15.75 14.8125C14.8125 14.8125 14.8125 11.7382 14.8125 11.0625C14.8125 11.0625 13.0984 11.0625 12 11.0625C11.0625 11.0625 11.0625 11.0625 11.0625 10.125V9.18745C11.0625 7.78116 11.5312 7.31245 12.9375 7.31245H14.8125C14.8125 6.63488 14.8125 3.5625 15.75 3.5625C17.1562 3.5625 21.375 7.78116 21.375 9.18745C21.375 10.5938 17.1562 14.8125 15.75 14.8125Z" fill="#001A34" fill-opacity="0.6"/>
<path d="M9.1875 12.9376C9.1875 12.9376 10.9017 12.9375 12 12.9375C12.9375 12.9375 12.9375 12.9375 12.9375 13.8751V14.8126C12.9375 16.2188 12.4688 16.6876 11.0625 16.6876H9.1875C9.1875 17.3651 9.1875 20.4375 8.25 20.4375C6.84375 20.4375 2.62503 16.2188 2.625 14.8125C2.62497 13.4062 6.84375 9.1875 8.25 9.1875C9.1875 9.1875 9.1875 12.2618 9.1875 12.9376Z" fill="#001A34" fill-opacity="0.6"/>
</svg>
