<svg width="24" height="24" viewBox="0 0 24 24" fill="none" xmlns="http://www.w3.org/2000/svg">
<path fill-rule="evenodd" clip-rule="evenodd" d="M12 8.00011C14.4766 8.00011 16.2721 8.00042 17.5732 8.13586C18.0818 8.16298 18.5569 8.19325 19 8.2257C20.628 8.34493 20.9996 8.50051 20.959 10.0001C20.9997 10.9365 21 12.1978 21 14.0001V14.5001C21 18.8529 21 20.0001 12 20.0001C3 20.0001 3 18.8529 3 14.5001V14.0001C3 12.1978 3.00035 10.9365 3.04102 10.0001C3.04108 8.50051 3.37203 8.34493 5 8.2257C5.4431 8.19325 5.91817 8.16298 6.42676 8.13586C7.72788 8.00042 9.52343 8.00011 12 8.00011ZM12.9463 11.0109C13.439 8.68653 11.0545 11.0101 10.4229 11.6749C9.79189 12.3391 8.21425 13.9997 9.47559 14.5314L10.7383 15.0636C11.3688 15.3291 11.3693 15.3295 11.2432 15.9933L11.0537 16.9903C10.6123 19.315 12.9471 16.9896 13.5781 16.3253C14.2095 15.6606 15.7858 14.0003 14.5244 13.4689L13.2617 12.9376C12.631 12.672 12.6312 12.6712 12.7363 12.0069C12.767 11.8134 12.8203 11.5785 12.873 11.3448C12.8985 11.232 12.9234 11.1189 12.9463 11.0109ZM9.5 4.00402C10.9901 3.99371 11 4.01529 11 5.50109C11 6.9919 10.9904 6.99234 9.51855 7.01574C7.53522 7.04731 6.36397 7.12439 5 7.22277C4 7.2949 3.73838 7.0156 4.5 6.00011C5.81048 4.25274 5.4763 4.03185 9.5 4.00402ZM14.5186 4.005C18.5425 4.03283 18.1895 4.25276 19.5 6.00011C20.2616 7.01561 20 7.2949 19 7.22277C17.636 7.12438 16.4835 7.04731 14.5 7.01574C13.0281 6.99234 13.0186 6.9922 13.0186 5.50109C13.0186 4.01551 13.0287 3.99469 14.5186 4.005Z" fill="black"/>
</svg>
