<svg width="24" height="24" viewBox="0 0 24 24" fill="none" xmlns="http://www.w3.org/2000/svg">
<path fill-rule="evenodd" clip-rule="evenodd" d="M7.02 5.09302C7.58284 5.05068 8.25072 5.02761 9.00001 5.01504C9.9942 4.99837 10 5.00928 10 6V7.5C10 7.77614 10.2239 8 10.5 8C10.7762 8 11 7.77614 11 7.5V6C11 5.00299 11.0026 5 12 5C14.1232 5 15.7435 5 16.98 5.09302C20.0756 5.32588 20.7659 6.14172 20.9199 9C20.9555 9.66265 20.9793 10.3305 20.9912 11C21.0088 11.998 20.992 12 20 12H16.5C16.0696 12 16.1451 11.9962 16.29 11.6223C16.426 11.2717 16.5 10.8916 16.5 10.5C16.5 8.90492 15.2726 7.5 13.625 7.5C12.9015 7.5 12.2718 7.6811 11.7403 8.03119C11.2046 8.38408 10.8002 8.89709 10.5056 9.4614C10.2124 8.89398 9.80661 8.3792 9.26782 8.02705C8.73392 7.6781 8.10142 7.5 7.37497 7.5C5.72734 7.5 4.49997 8.90492 4.49997 10.5C4.49997 10.8916 4.57393 11.2717 4.70992 11.6223C4.86722 12.028 4.89951 12 4.44326 12H4.00001C3.00801 12 2.99119 11.998 3.00886 11C3.02071 10.3305 3.04448 9.66265 3.08017 9C3.2341 6.14172 3.92439 5.32588 7.02 5.09302Z" fill="black"/>
<path fill-rule="evenodd" clip-rule="evenodd" d="M4.89077 13H4.00001C3.0106 13 3.0001 13.0057 3.03549 14C3.04739 14.3343 3.06228 14.6678 3.08017 15C3.2341 17.8583 3.92439 18.6741 7.02 18.907C7.59349 18.9501 8.24954 18.9733 9.00001 18.9857C9.99393 19.0021 10 18.9904 10 18V16.5C10 16.2239 10.2239 16 10.5 16C10.7762 16 11 16.2239 11 16.5V18C11 18.9976 11.0019 19 12 19C14.1232 19 15.7435 19 16.98 18.907C20.0756 18.6741 20.7659 17.8583 20.9199 15C20.9377 14.6678 20.9526 14.3343 20.9645 14C20.9999 13.0057 20.9894 13 20 13H16C15.4733 13 15.2202 13.0547 14.7567 13.2612C14.4132 13.4143 14.0319 13.5 13.625 13.5H12.6948C12.9706 13.7446 13.2626 13.9678 13.5665 14.176C14.0216 14.4889 14.1369 15.1115 13.824 15.5666C13.5112 16.0217 12.8886 16.137 12.4335 15.8241C11.7226 15.3373 11.0706 14.7717 10.4976 14.1272C9.76749 14.9402 9.06519 15.4546 8.76826 15.6721C8.70754 15.7166 8.66377 15.7486 8.64018 15.7683C8.2159 16.1218 7.58534 16.0645 7.23177 15.6402C6.87821 15.216 6.93553 14.5854 7.35981 14.2318C7.42764 14.1753 7.51645 14.1088 7.62169 14.0299C7.8033 13.8939 8.03383 13.7211 8.28985 13.5H7.37497C7.02293 13.5 6.69008 13.4359 6.38429 13.3194C5.81768 13.1037 5.52221 13 4.89077 13Z" fill="black"/>
<path fill-rule="evenodd" clip-rule="evenodd" d="M6.49997 10.5C6.49997 9.88594 6.95153 9.5 7.37497 9.5C7.97712 9.5 8.39206 9.77526 8.68244 10.2933C8.87899 10.6439 9.01956 11.0418 9.15942 11.5H7.37497C6.95153 11.5 6.49997 11.1141 6.49997 10.5Z" fill="black"/>
<path fill-rule="evenodd" clip-rule="evenodd" d="M13.625 11.5H11.8439C11.9848 11.0467 12.1282 10.65 12.3248 10.3017C12.6146 9.78824 13.0244 9.5 13.625 9.5C14.0484 9.5 14.5 9.88594 14.5 10.5C14.5 11.1141 14.0484 11.5 13.625 11.5Z" fill="black"/>
</svg>
