<svg width="24" height="24" viewBox="0 0 24 24" fill="none" xmlns="http://www.w3.org/2000/svg">
<path d="M5.70711 4.29289C5.31658 3.90237 4.68342 3.90237 4.29289 4.29289C3.93108 4.65471 3.90448 5.2248 4.2131 5.61724C3.33562 6.04555 3 6.77106 3 8C3 8.5 3 9 4 9H7.58579L9.58579 11H4C3 11 3 11.5 3 12C3 15.2075 3 16.9453 3.86585 17.8868C4.88962 19 7.12391 19 12 19C14.4013 19 16.162 19 17.4528 18.867L18.2929 19.7071C18.6834 20.0976 19.3166 20.0976 19.7071 19.7071C20.0976 19.3166 20.0976 18.6834 19.7071 18.2929L5.70711 4.29289Z" fill="black"/>
<path d="M8.61918 5.8027C9.08793 6.27145 11.002 8.18551 11.002 8.18551C11.7576 8.94108 11.9311 9 13.0156 9C15.7432 9 20 9 20 9C21 9 21 8.5 21 8C21 5 19 5 12 5C10.8817 5 9.89108 5 9.01579 5.01223C8.14051 5.02446 8.15043 5.33395 8.61918 5.8027Z" fill="black"/>
<path d="M19.6426 16.8261C19.6426 16.8261 15.127 12.3105 14.6817 11.8652C14.0098 11.1933 14.0625 11 15.0312 11C16.9717 11 20 11 20 11C21 11 21 11.5 21 12C21 14.1587 21 15.6517 20.736 16.6843C20.5652 17.3524 20.2902 17.4737 19.6426 16.8261Z" fill="black"/>
</svg>
