<svg width="24" height="24" viewBox="0 0 24 24" fill="none" xmlns="http://www.w3.org/2000/svg">
<path d="M9 18C12.7228 18 15 15.7228 15 12C15 8.2772 12.7228 6 9 6C5.2772 6 3 8.2772 3 12C3 15.7228 5.2772 18 9 18Z" fill="black"/>
<path d="M15 6C14.4477 6 14 6.44772 14 7C14 7.55228 14.4477 8 15 8C16.3457 8 17.32 8.40749 17.9563 9.04373C18.5925 9.67998 19 10.6543 19 12C19 13.3457 18.5925 14.32 17.9563 14.9563C17.32 15.5925 16.3457 16 15 16C14.4477 16 14 16.4477 14 17C14 17.5523 14.4477 18 15 18C16.7566 18 18.2823 17.4587 19.3705 16.3705C20.4587 15.2823 21 13.7566 21 12C21 10.2434 20.4587 8.71769 19.3705 7.62952C18.2823 6.54134 16.7566 6 15 6Z" fill="black"/>
</svg>
