<svg width="24" height="24" viewBox="0 0 24 24" fill="none" xmlns="http://www.w3.org/2000/svg">
<path d="M2.62684 9.48187V11.8233H4.05436C4.46376 11.8233 4.78159 11.7214 5.00783 11.5175C5.23767 11.31 5.35259 11.0235 5.35259 10.6579C5.35259 10.2958 5.23408 10.0092 4.99706 9.79829C4.76004 9.58734 4.44042 9.48187 4.0382 9.48187H2.62684ZM2.62684 13.0468V15.8049H1V8.19512H4.26445C5.11916 8.19512 5.79252 8.4131 6.28452 8.84904C6.77653 9.28499 7.02253 9.88091 7.02253 10.6368C7.02253 11.129 6.89683 11.5702 6.64544 11.9604C6.39765 12.3472 6.05289 12.6267 5.61117 12.7989L7.24878 15.8049H5.40646L3.95739 13.0468H2.62684Z" fill="black"/>
<path d="M10.3031 8.19512V13.0152C10.3031 13.5003 10.445 13.8835 10.7287 14.1648C11.016 14.4461 11.4164 14.5867 11.93 14.5867C12.4471 14.5867 12.8475 14.4461 13.1312 14.1648C13.4185 13.8835 13.5622 13.5003 13.5622 13.0152V8.19512H15.189V13.1786C15.189 14.0259 14.8927 14.708 14.3002 15.2248C13.7112 15.7416 12.9212 16 11.93 16C10.9424 16 10.1523 15.7416 9.55974 15.2248C8.97078 14.708 8.6763 14.0259 8.6763 13.1786V8.19512H10.3031Z" fill="black"/>
<path d="M16.7351 13.6902H18.308C18.3439 13.9996 18.5091 14.2457 18.8036 14.4285C19.0981 14.6113 19.4752 14.7027 19.9349 14.7027C20.3586 14.7027 20.7052 14.6131 20.9745 14.4338C21.2439 14.2509 21.3785 14.0154 21.3785 13.7271C21.3785 13.4845 21.2744 13.2876 21.0661 13.1365C20.8578 12.9853 20.5149 12.8605 20.0372 12.762L19.0245 12.5511C17.6167 12.2628 16.9128 11.5386 16.9128 10.3784C16.9128 9.66117 17.184 9.08635 17.7262 8.65392C18.2685 8.21797 18.9886 8 19.8864 8C20.7411 8 21.4432 8.2127 21.9927 8.6381C22.5457 9.0635 22.8348 9.61547 22.8599 10.294H21.3301C21.2906 9.99165 21.1397 9.74907 20.8776 9.56625C20.6154 9.38343 20.2886 9.29202 19.8972 9.29202C19.4878 9.29202 19.1592 9.37816 18.9114 9.55043C18.6672 9.7227 18.5451 9.95298 18.5451 10.2413C18.5451 10.4768 18.6438 10.6667 18.8413 10.8108C19.0424 10.955 19.371 11.0745 19.8271 11.1694L20.7644 11.3645C21.5437 11.5263 22.1112 11.7794 22.4667 12.1239C22.8222 12.4685 23 12.9361 23 13.5267C23 14.2931 22.7181 14.8978 22.1543 15.3408C21.594 15.7803 20.8255 16 19.8487 16C18.9221 16 18.1787 15.7926 17.6185 15.3777C17.0583 14.9629 16.7638 14.4004 16.7351 13.6902Z" fill="black"/>
</svg>
