<svg width="24" height="24" viewBox="0 0 24 24" fill="none" xmlns="http://www.w3.org/2000/svg">
<path d="M6.19642 14.4443V15.8049H1V8.19512H6.19642V9.5557H2.64155V11.3329H5.99531V12.5933H2.64155V14.4443H6.19642Z" fill="black"/>
<path d="M9.49582 15.8049H7.92494V8.19512H9.29471L12.9039 12.9361H13.0018V8.19512H14.5727V15.8049H13.2138L9.59366 11.0428H9.49582V15.8049Z" fill="black"/>
<path d="M23 12.6987C23 13.7148 22.6884 14.5199 22.0651 15.114C21.4418 15.7047 20.5938 16 19.5212 16C18.3544 16 17.4358 15.6432 16.7654 14.9295C16.095 14.2158 15.7598 13.2367 15.7598 11.9921C15.7598 10.7651 16.095 9.79301 16.7654 9.07581C17.4358 8.3586 18.3417 8 19.4832 8C20.4108 8 21.1881 8.23907 21.815 8.7172C22.4419 9.19534 22.8134 9.82993 22.9293 10.621H21.2987C21.1755 10.2342 20.9562 9.9354 20.641 9.72446C20.3257 9.51 19.9398 9.40277 19.4832 9.40277C18.849 9.40277 18.3489 9.63305 17.983 10.0936C17.6206 10.5506 17.4394 11.1782 17.4394 11.9763C17.4394 12.7884 17.6278 13.4283 18.0047 13.8958C18.3852 14.3634 18.8998 14.5972 19.5484 14.5972C20.0847 14.5972 20.5232 14.4566 20.8638 14.1753C21.2044 13.8941 21.3893 13.3861 21.4074 12.9255H19.706V11.7284H23V12.6987Z" fill="black"/>
</svg>
