<svg width="24" height="24" viewBox="0 0 24 24" fill="none" xmlns="http://www.w3.org/2000/svg">
<path d="M16 9C18.7614 9 21 11.2386 21 14C21 16.7614 18.7614 19 16 19C14.501 19 13.1557 18.3407 12.2393 17.2959C11.4675 16.416 11 15.2624 11 14C11 11.2386 13.2386 9 16 9ZM18.9805 11.9238C18.682 11.6751 18.2472 11.6976 17.9756 11.9639L17.9238 12.0195L15.8789 14.4717L14.4502 13.4004L14.3867 13.3574C14.0612 13.161 13.6335 13.2393 13.4004 13.5498C13.1674 13.8605 13.2116 14.2931 13.4912 14.5508L13.5498 14.5996L15.5498 16.0996L15.6758 16.1758C15.9795 16.3218 16.3525 16.2486 16.5762 15.9805L19.0762 12.9805L19.1221 12.9189C19.3348 12.6039 19.2787 12.1725 18.9805 11.9238Z" fill="black"/>
<path d="M8 11C8.52281 11 9.02625 11.0275 9.5 11.0781C10.4951 11.1844 10.5628 11.3745 10.3418 12C10.1207 12.6256 10 13.2987 10 14C10 15.0929 10.2922 16.1175 10.8027 17C11 17.3411 10.9815 17.7464 10 17.875C9.38754 17.9553 8.71111 18 8 18C5.23858 18 3 17.3284 3 16.5V14.9912C3.00001 14.0001 3.02844 14.0618 4 14.4053C4.93951 14.7374 6.15571 14.9477 7.4834 14.9912C7.75924 15.0003 7.99071 14.7846 8 14.5088C8.00904 14.2329 7.79249 14.0013 7.5166 13.9922C6.15486 13.9476 4.96473 13.717 4.13281 13.3877C3.7152 13.2224 3.41348 13.0419 3.22461 12.8691C3.03603 12.6966 3 12.5717 3 12.5V12.498C3.00067 12.4221 3.04217 12.286 3.25781 12.1006C3.4738 11.9149 3.8164 11.7251 4.28223 11.5557C5.20975 11.2185 6.52404 11 8 11Z" fill="black"/>
<path d="M11 5C13.7614 5 16 5.67157 16 6.5V7C16 8 15.974 7.9196 15 8.08301C13.8585 8.27451 12.8261 8.78802 12 9.52734C11.0017 10.4209 11.3519 10.3164 10 10.1318C9.37461 10.0465 8.70074 10 8 10C7.65984 10 7.32566 10.0112 7 10.0322C6.0001 10.0968 6 10 6 9.04102C6 8.03134 5.8478 7.9623 6.76465 8.3252C7.73187 8.70803 9.04197 8.95275 10.4834 9C10.7593 9.00904 10.9908 8.79245 11 8.5166C11.009 8.24068 10.7925 8.00916 10.5166 8C9.15486 7.95538 7.96473 7.72479 7.13281 7.39551C6.71539 7.23028 6.41349 7.05063 6.22461 6.87793C6.03587 6.70527 6 6.57949 6 6.50781V6.5C6 5.67157 8.23858 5 11 5Z" fill="black"/>
</svg>
