<svg width="24" height="24" viewBox="0 0 24 24" fill="none" xmlns="http://www.w3.org/2000/svg">
<path d="M5.70711 4.29289C5.31658 3.90237 4.68342 3.90237 4.29289 4.29289C3.90237 4.68342 3.90237 5.31658 4.29289 5.70711L8 9.41421V10H6.5C5.67157 10 5 10.6716 5 11.5C5 12.3284 5.67157 13 6.5 13H8V14H6.5C5.67157 14 5 14.6716 5 15.5C5 16.3284 5.67157 17 6.5 17H8V18.5C8 19.3284 8.67157 20 9.5 20C10.3284 20 11 19.3284 11 18.5V17H15.5C15.528 17 15.5559 16.9992 15.5835 16.9977L18.2929 19.7071C18.6834 20.0976 19.3166 20.0976 19.7071 19.7071C20.0976 19.3166 20.0976 18.6834 19.7071 18.2929C15.0306 13.6164 10.3766 8.96243 5.70711 4.29289ZM11.5858 13L12.5858 14H11V13H11.5858Z" fill="black"/>
<path d="M13.5 10C12.7861 10 13.1747 10.3384 13.7552 10.9189C14.1881 11.3519 14.8638 12.0276 14.8638 12.0276C15.5353 12.699 15.8782 12.8412 16.6498 12.5132C16.8553 12.4258 17.0538 12.3233 17.2428 12.203C18.5029 11.4011 19 10.0715 19 8.5C19 6.92851 18.5029 5.59889 17.2428 4.79701C16.1576 4.10644 14.7619 4 13.5 4H9.5C9.03148 4 8.61314 4.2148 8.33806 4.55129C7.90011 5.08704 8.12184 5.28558 8.54336 5.70711C8.54336 5.70711 9.58015 6.74389 10.2445 7.40822C10.9088 8.07254 11 8.14826 11 7H13.5C14.7381 7 15.3424 7.14356 15.6322 7.32799C15.7471 7.40111 16 7.57149 16 8.5C16 9.42851 15.7471 9.59889 15.6322 9.67201C15.3424 9.85644 14.7381 10 13.5 10Z" fill="black"/>
</svg>
