<svg width="24" height="24" viewBox="0 0 24 24" fill="none" xmlns="http://www.w3.org/2000/svg">
<path d="M4 9C3 9 3 8.5 3 8C3 5 5 5 12 5C19 5 21 5 21 8C21 8.5 21 9 20 9H4Z" fill="black"/>
<path d="M20.75 12.75C20.9292 12.5708 20.9799 12.2632 20.9943 11.7352C20.9682 11.3375 20.8215 11 20 11H4C3 11 3 11.5 3 12C3 15.2075 3 16.9453 3.86585 17.8868C4.88962 19 7.12391 19 12 19C13.5 19 15 19 15 17C15 14 16 13 19 13C20 13 20.5 13 20.75 12.75Z" fill="black"/>
<path d="M22.7071 15.2929C22.3166 14.9024 21.6834 14.9024 21.2929 15.2929L19 17.5858L17.7071 16.2929C17.3166 15.9024 16.6834 15.9024 16.2929 16.2929C15.9024 16.6834 15.9024 17.3166 16.2929 17.7071L18.2929 19.7071C18.6834 20.0976 19.3166 20.0976 19.7071 19.7071L22.7071 16.7071C23.0976 16.3166 23.0976 15.6834 22.7071 15.2929Z" fill="black"/>
</svg>
