<svg width="24" height="24" viewBox="0 0 24 24" fill="none" xmlns="http://www.w3.org/2000/svg">
<path d="M18.5 14C20.433 14 22 15.567 22 17.5C22 19.433 20.433 21 18.5 21C16.567 21 15 19.433 15 17.5C15 15.567 16.567 14 18.5 14ZM13.5 4C14.7619 4 16.158 4.10631 17.2432 4.79688C18.5031 5.59877 19 6.92859 19 8.5C19 10.0714 18.5031 11.4012 17.2432 12.2031C16.158 12.8937 14.7619 13 13.5 13H11V14H13.5C14.3284 14 15 14.6716 15 15.5C15 16.3284 14.3284 17 13.5 17H11V18.5C11 19.3284 10.3284 20 9.5 20C8.67157 20 8 19.3284 8 18.5V17H6.5C5.67157 17 5 16.3284 5 15.5C5 14.6716 5.67157 14 6.5 14H8V13H6.5C5.67157 13 5 12.3284 5 11.5C5 10.6716 5.67157 10 6.5 10H8V5.5C8 4.67157 8.67157 4 9.5 4H13.5ZM18.5 15C18.2239 15 18 15.2239 18 15.5V17.5C18 17.6326 18.0527 17.7597 18.1465 17.8535L19.1465 18.8535C19.3417 19.0488 19.6583 19.0488 19.8535 18.8535C20.0488 18.6583 20.0488 18.3417 19.8535 18.1465L19 17.293V15.5C19 15.2239 18.7761 15 18.5 15ZM11 10H13.5C14.7378 10 15.3419 9.85625 15.6318 9.67188C15.7467 9.59875 16 9.42851 16 8.5C16 7.57149 15.7467 7.40125 15.6318 7.32812C15.3419 7.14375 14.7378 7 13.5 7H11V10Z" fill="black"/>
</svg>
