<svg width="24" height="24" viewBox="0 0 24 24" fill="none" xmlns="http://www.w3.org/2000/svg">
<path fill-rule="evenodd" clip-rule="evenodd" d="M17.0001 5.02051C19.3577 5.12613 19.9981 5.77231 19.9982 9.72266C19.9982 10.0544 19.9988 10.6491 19.9991 11.3672C20.0002 13.3748 20.0014 16.3518 19.9982 17.2793C19.9982 21.9999 19.0835 22 15.4171 22H13.5841C11.3987 22 10.1901 21.9999 9.57043 21C9.12867 20.2869 9.48333 20 10.4698 20C11.3431 20 12.1395 20.0002 12.8019 19.9189C13.4855 19.8351 14.1735 19.6498 14.7345 19.168C15.3045 18.6782 15.6071 18.0004 15.7755 17.2188C15.9416 16.4478 15.9981 15.4765 15.9982 14.2812C16.0014 13.3499 16.0002 10.3758 15.9991 8.37109V8.36133C15.9988 7.64534 15.9982 7.05334 15.9982 6.72266C15.9982 6.47204 15.9958 6.23116 15.9903 6C15.9698 5.12611 16.133 4.9817 17.0001 5.02051ZM10.4181 2C14.084 2 14.9991 2.00231 14.9991 6.72266V14.2793C14.9991 18.9997 14.084 19 10.4181 19H8.5841C4.91788 19.0001 4.00013 18.9999 4.00011 14.2793V13.1172C3.99965 11.1404 4.00053 7.72781 4.00402 6.72266C4.02043 2.00216 4.91789 2 8.5841 2H10.4181ZM6.28722 15.585C5.86644 15.585 5.52453 15.923 5.52453 16.3398C5.52462 16.7566 5.86649 17.0947 6.28722 17.0947H6.66711C7.08769 17.0946 7.42971 16.7565 7.4298 16.3398C7.4298 15.9231 7.08775 15.5851 6.66711 15.585H6.28722ZM8.95324 15.585C8.53262 15.5852 8.19152 15.9231 8.19152 16.3398C8.19161 16.7565 8.53267 17.0945 8.95324 17.0947H10.0958C10.5163 17.0945 10.8584 16.7564 10.8585 16.3398C10.8585 15.9232 10.5164 15.5852 10.0958 15.585H8.95324ZM12.382 15.585C11.9613 15.5851 11.6202 15.9231 11.6202 16.3398C11.6203 16.7565 11.9614 17.0946 12.382 17.0947H12.7628C13.1833 17.0944 13.5254 16.7564 13.5255 16.3398C13.5255 15.9232 13.1833 15.5853 12.7628 15.585H12.382ZM6.28722 13.3213C5.86654 13.3213 5.5247 13.6585 5.52453 14.0752C5.52453 14.492 5.86644 14.8301 6.28722 14.8301H6.66711C7.08775 14.8299 7.4298 14.4919 7.4298 14.0752C7.42963 13.6586 7.08764 13.3215 6.66711 13.3213H6.28722ZM8.95324 13.3213C8.53272 13.3215 8.19169 13.6586 8.19152 14.0752C8.19152 14.4919 8.53262 14.8299 8.95324 14.8301H10.0958C10.5164 14.8298 10.8585 14.4918 10.8585 14.0752C10.8583 13.6587 10.5163 13.3216 10.0958 13.3213H8.95324ZM12.382 13.3213C11.9614 13.3215 11.6204 13.6586 11.6202 14.0752C11.6202 14.4919 11.9613 14.8299 12.382 14.8301H12.7628C13.1833 14.8298 13.5255 14.4918 13.5255 14.0752C13.5253 13.6587 13.1832 13.3216 12.7628 13.3213H12.382ZM6.28722 11.0566C5.86644 11.0566 5.52453 11.3947 5.52453 11.8115C5.52462 12.2283 5.86649 12.5664 6.28722 12.5664H6.66711C7.08769 12.5662 7.42971 12.2282 7.4298 11.8115C7.4298 11.3948 7.08775 11.0568 6.66711 11.0566H6.28722ZM8.95324 11.0566C8.53262 11.0568 8.19152 11.3948 8.19152 11.8115C8.19161 12.2281 8.53267 12.5662 8.95324 12.5664H10.0958C10.5163 12.5661 10.8584 12.2281 10.8585 11.8115C10.8585 11.3949 10.5164 11.0569 10.0958 11.0566H8.95324ZM12.382 11.0566C11.9613 11.0568 11.6202 11.3948 11.6202 11.8115C11.6203 12.2282 11.9614 12.5662 12.382 12.5664H12.7628C13.1833 12.5661 13.5254 12.2281 13.5255 11.8115C13.5255 11.3949 13.1833 11.0569 12.7628 11.0566H12.382ZM7.50011 3C7.22416 3.00017 7.00018 3.22402 7.00011 3.5C7.00011 3.77603 7.22412 3.99983 7.50011 4H11.5001C11.7763 3.99999 12.0011 3.77614 12.0011 3.5C12.001 3.22392 11.7762 3.00001 11.5001 3H7.50011Z" fill="black"/>
</svg>
