<svg width="24" height="24" viewBox="0 0 24 24" fill="none" xmlns="http://www.w3.org/2000/svg">
<path d="M11 8.93849C9.98429 8.93849 8.84081 10.1018 8.84081 12C8.84081 13.8982 9.98429 15.0615 11 15.0615C12.0157 15.0615 13.1592 13.8982 13.1592 12C13.1592 10.1018 12.0157 8.93849 11 8.93849Z" fill="black"/>
<path d="M18.416 15.6668H19.7376C19.9806 15.6668 20.1775 15.4698 20.1775 15.2268C20.1775 14.9838 19.9806 14.7869 19.7376 14.7869H18.416V15.6668Z" fill="black"/>
<path d="M11 21C12.5329 21 13.9025 20.7426 15.0828 20.2536C15.8663 20.7394 16.8504 21 18 21C21.1023 21 23 19.1023 23 16C23 13.6281 21.8907 11.9604 19.9819 11.3066C19.7086 6.13433 16.3492 3 11 3C5.4158 3 2 6.4158 2 12C2 17.5842 5.4158 21 11 21ZM7 12C7 9.44598 8.61408 7 11 7C13.3859 7 15 9.44598 15 12C15 14.554 13.3859 17 11 17C8.61408 17 7 14.554 7 12ZM17.416 14.2869C17.416 14.0107 17.6399 13.7869 17.916 13.7869H19.7376C20.5328 13.7869 21.1775 14.4316 21.1775 15.2268C21.1775 16.0221 20.5328 16.6668 19.7376 16.6668H18.416V17.235H19.0908C19.3669 17.235 19.5908 17.4589 19.5908 17.735C19.5908 18.0112 19.3669 18.235 19.0908 18.235H18.416V18.7041C18.416 18.9803 18.1922 19.2041 17.916 19.2041C17.6399 19.2041 17.416 18.9803 17.416 18.7041V18.235H16.9762C16.7001 18.235 16.4762 18.0112 16.4762 17.735C16.4762 17.4589 16.7001 17.235 16.9762 17.235H17.416V16.6668H16.9762C16.7001 16.6668 16.4762 16.4429 16.4762 16.1668C16.4762 15.8906 16.7001 15.6668 16.9762 15.6668H17.416V14.2869Z" fill="black"/>
</svg>
