<svg width="24" height="24" viewBox="0 0 24 24" fill="none" xmlns="http://www.w3.org/2000/svg">
<path d="M12 3C4.5885 3 3 4.5885 3 12C3 19.4115 4.5885 21 12 21C19.4115 21 21 19.4115 21 12C21 4.5885 19.4115 3 12 3ZM12 6C12.3677 6 12.7039 6.20776 12.8683 6.53666C13.3288 7.45757 13.7095 8.8075 14.451 9.549C15.1925 10.2905 16.5424 10.6712 17.4633 11.1317C17.7922 11.2961 18 11.6323 18 12C18 12.3677 17.7922 12.7039 17.4633 12.8683C16.5424 13.3288 15.1925 13.7095 14.451 14.451C13.7095 15.1925 13.3288 16.5424 12.8683 17.4633C12.7039 17.7922 12.3677 18 12 18C11.6323 18 11.2961 17.7922 11.1317 17.4633C10.6712 16.5424 10.2905 15.1925 9.549 14.451C8.8075 13.7095 7.45757 13.3288 6.53666 12.8683C6.20776 12.7039 6 12.3677 6 12C6 11.6323 6.20776 11.2961 6.53666 11.1317C7.45757 10.6712 8.8075 10.2905 9.549 9.549C10.2905 8.8075 10.6712 7.45757 11.1317 6.53666C11.2961 6.20776 11.6323 6 12 6Z" fill="black"/>
</svg>
