<svg width="24" height="24" viewBox="0 0 24 24" fill="none" xmlns="http://www.w3.org/2000/svg">
<path d="M21 12C21 17.5842 17.5842 21 12 21C6.4158 21 3 17.5842 3 12C3 6.4158 6.4158 3 12 3C17.5842 3 21 6.4158 21 12ZM9.70711 15.7071L15.7071 9.70711C16.0976 9.31658 16.0976 8.68342 15.7071 8.29289C15.3166 7.90237 14.6834 7.90237 14.2929 8.29289L8.29289 14.2929C7.90237 14.6834 7.90237 15.3166 8.29289 15.7071C8.68342 16.0976 9.31658 16.0976 9.70711 15.7071ZM17 15C17 13.7591 16.2409 13 15 13C13.7591 13 13 13.7591 13 15C13 16.2409 13.7591 17 15 17C16.2409 17 17 16.2409 17 15ZM9 11C10.2409 11 11 10.2409 11 9C11 7.75907 10.2409 7 9 7C7.75907 7 7 7.75907 7 9C7 10.2409 7.75907 11 9 11Z" fill="black"/>
</svg>
