<svg width="24" height="24" viewBox="0 0 24 24" fill="none" xmlns="http://www.w3.org/2000/svg">
<path d="M15.4244 6V13.4108C15.4244 14.1568 15.6444 14.7459 16.0843 15.1784C16.5297 15.6108 17.1506 15.827 17.9468 15.827C18.7486 15.827 19.3695 15.6108 19.8094 15.1784C20.2548 14.7459 20.4776 14.1568 20.4776 13.4108V6H23V13.6622C23 14.9649 22.5406 16.0135 21.6218 16.8081C20.7086 17.6027 19.4836 18 17.9468 18C16.4156 18 15.1906 17.6027 14.2718 16.8081C13.3586 16.0135 12.902 14.9649 12.902 13.6622V6H15.4244Z" fill="black"/>
<path d="M3.52237 13.4595V17.7H0.999969V6H6.06147C7.38671 6 8.43075 6.33514 9.19359 7.00541C9.95644 7.67568 10.3379 8.59189 10.3379 9.75405C10.3379 10.5108 10.143 11.1892 9.7532 11.7892C9.36899 12.3838 8.83444 12.8135 8.14955 13.0784L10.6887 17.7H7.83216L5.58539 13.4595H3.52237ZM3.52237 11.5784H5.73573C6.37051 11.5784 6.8633 11.4216 7.21409 11.1081C7.57046 10.7892 7.74864 10.3486 7.74864 9.78649C7.74864 9.22973 7.56489 8.78919 7.19739 8.46486C6.82989 8.14054 6.33432 7.97838 5.71068 7.97838H3.52237V11.5784Z" fill="black"/>
</svg>
