<svg width="24" height="24" viewBox="0 0 24 24" fill="none" xmlns="http://www.w3.org/2000/svg">
<path d="M6 5.5C6 4.67157 6.67157 4 7.5 4H11.5C12.7619 4 14.1576 4.10644 15.2428 4.79701C16.5029 5.59889 17 6.92851 17 8.5C17 10.0715 16.5029 11.4011 15.2428 12.203C14.1576 12.8936 12.7619 13 11.5 13H9V14H10.5C11.3284 14 12 14.6716 12 15.5C12 16.3284 11.3284 17 10.5 17H9V18.5C9 19.3284 8.32843 20 7.5 20C6.67157 20 6 19.3284 6 18.5V17H4.5C3.67157 17 3 16.3284 3 15.5C3 14.6716 3.67157 14 4.5 14H6V13H4.5C3.67157 13 3 12.3284 3 11.5C3 10.6716 3.67157 10 4.5 10H6V5.5ZM9 10H11.5C12.7381 10 13.3424 9.85644 13.6322 9.67201C13.7471 9.59889 14 9.42851 14 8.5C14 7.57149 13.7471 7.40111 13.6322 7.32799C13.3424 7.14356 12.7381 7 11.5 7H9V10Z" fill="black"/>
<path d="M21.7809 15.6247C22.1259 15.1935 22.056 14.5642 21.6247 14.2192C21.1934 13.8742 20.5641 13.9441 20.2191 14.3753L16.9171 18.5029L14.7071 16.2929C14.3166 15.9024 13.6834 15.9024 13.2929 16.2929C12.9024 16.6835 12.9024 17.3166 13.2929 17.7071L16.2929 20.7071C16.494 20.9083 16.7713 21.0142 17.0553 20.9985C17.3393 20.9828 17.6032 20.8468 17.7809 20.6247L21.7809 15.6247Z" fill="black"/>
</svg>
