<svg width="24" height="24" viewBox="0 0 24 24" fill="none" xmlns="http://www.w3.org/2000/svg">
<path d="M12 4C19.9995 4 20.7919 3.99981 21.5801 5.11035C22.0001 5.70214 22 7.60958 22 9C22 11.4227 22 13 19 13C19 14.6203 19.0981 15.8989 19 17.5C18.79 20.9286 15.188 21 12 21C8.81197 21 5.20979 20.9286 5 17.5C4.90199 15.8982 5 14.5785 5 13C2 13 2 11.4227 2 9C2 7.60964 1.99996 5.70214 2.41992 5.11035C3.2081 3.99985 4.00059 4 12 4ZM5.5 7C4.0109 7 3 7.28586 3 8.42871V10H5C5 9.42863 5.22218 8.42891 6.33301 8.42871H7.51465C8.55552 8.42871 8.55566 8.42864 8.55566 9.57129C8.55577 12.096 10.1875 13.1875 12 13.1875C13.8125 13.1875 15.4442 12.096 15.4443 9.57129C15.4444 8.42856 15.4446 8.42871 16.5557 8.42871H17.6611C18.7646 8.42871 19 9.42857 19 10H21V8.42871C21 7.28586 19.9891 7 18.5 7H5.5ZM13.1113 8.42871C13.935 8.42874 14.2226 8.61148 14.2227 9.57129C14.2226 10.8335 13.2272 11.8574 12 11.8574C10.7728 11.8574 9.77745 10.8335 9.77734 9.57129C9.77736 8.51178 10.0207 8.42872 10.8887 8.42871H13.1113Z" fill="black"/>
</svg>
