<svg width="24" height="24" viewBox="0 0 24 24" fill="none" xmlns="http://www.w3.org/2000/svg">
<path d="M10 9.00098C8.34314 9.00098 7 10.3442 7 12.001C7 13.6577 8.34314 15.001 10 15.001C11.6569 15.001 13 13.6577 13 12.001C13 10.3442 11.6569 9.00098 10 9.00098Z" fill="black"/>
<path fill-rule="evenodd" clip-rule="evenodd" d="M3 12C3 4.5885 4.5885 3 12 3C19.4115 3 21 4.5885 21 12C21 19.4115 19.4115 21 12 21C4.5885 21 3 19.4115 3 12ZM10 7.00098C7.23859 7.00098 5 9.23975 5 12.001C5 14.7622 7.23859 17.001 10 17.001C12.7614 17.001 15 14.7622 15 12.001C15 9.23975 12.7614 7.00098 10 7.00098ZM16.5007 7.67041C16.0226 7.39404 15.4109 7.55713 15.1344 8.03564C14.8578 8.51367 15.0212 9.125 15.4993 9.40186C16.3986 9.92188 17 10.8916 17 12.001C17 13.1104 16.3986 14.0801 15.4993 14.6001C15.0212 14.877 14.8578 15.4888 15.1344 15.9668C15.4109 16.4448 16.0226 16.6079 16.5007 16.3315C17.9926 15.4683 19 13.853 19 12.001C19 10.1489 17.9926 8.53369 16.5007 7.67041Z" fill="black"/>
</svg>
