<svg width="24" height="24" viewBox="0 0 24 24" fill="none" xmlns="http://www.w3.org/2000/svg">
<path d="M3 8C3 8.5 3 9 4 9H20C21 9 21 8.5 21 8C21 5 19 5 12 5C5 5 3 5 3 8Z" fill="black"/>
<path d="M20.9943 11.7352C20.9799 12.2632 20.9292 12.5708 20.75 12.75C20.5 13 19 13 18 13C15 13 14 14 14 17C14 19 12.5 19 11 19C6.12391 19 4.88962 19 3.86585 17.8868C3 16.9453 3 15.2075 3 12C3 11.5 3 11 4 11H20C20.8215 11 20.9682 11.3375 20.9943 11.7352Z" fill="black"/>
<path d="M17.9229 18C17.7819 18.0001 17.641 18.0001 17.5 18.0001V18.5001H19.25C19.6642 18.5001 20 18.8359 20 19.2501C20 19.6643 19.6642 20.0001 19.25 20.0001H17.5V20.2501C17.5 20.6643 17.1642 21.0001 16.75 21.0001C16.3358 21.0001 16 20.6643 16 20.2501V20.0001H15.75C15.3358 20.0001 15 19.6643 15 19.2501C15 18.8359 15.3358 18.5001 15.75 18.5001H16V18.0001H15.75C15.3358 18.0001 15 17.6643 15 17.2501C15 16.8359 15.3358 16.5001 15.75 16.5001H16V14.7501C16 14.5512 16.079 14.3604 16.2197 14.2198C16.3603 14.0791 16.5516 14.0001 16.7506 14.0001C16.9749 14.0001 17.1993 14.0002 17.4236 14.0003C17.8878 14.0005 17.8521 14.0005 18.3163 13.9999C18.7637 13.9993 19.3965 13.9985 19.9135 14.2139C20.2157 14.3398 20.5077 14.5481 20.7149 14.8811C20.9178 15.2072 21 15.5897 21 16C21 16.4102 20.9178 16.7927 20.7149 17.1188C20.5077 17.4518 20.2157 17.6601 19.9135 17.786C19.3965 18.0014 18.7637 18.0006 18.3163 18C18.0185 17.9996 18.2207 17.9999 17.9229 18ZM19.5 16C19.5 15.5943 19.3011 15.5485 18.9221 15.5169C18.4691 15.4791 18.5094 15.4867 18.0521 15.4941C17.8675 15.4971 17.6833 15.5001 17.5 15.5001V16.5001C17.6833 16.5001 17.8675 16.5031 18.0521 16.5061C18.5095 16.5135 18.4691 16.5208 18.9221 16.483C19.3011 16.4514 19.5 16.4056 19.5 16Z" fill="black"/>
</svg>
