<svg width="24" height="24" viewBox="0 0 24 24" fill="none" xmlns="http://www.w3.org/2000/svg">
<path d="M16.0004 12C19.1023 12.0002 21.0003 13.898 21.0004 17C21.0002 20.1018 19.1022 21.9998 16.0004 22C12.8983 22 11.0006 20.102 11.0004 17C11.0005 13.8978 12.8982 12 16.0004 12ZM15.4448 14.2227C15.1379 14.2227 14.8891 14.4715 14.8891 14.7783V16.4443H14.3334C14.0267 16.4443 13.7779 16.6933 13.7778 17C13.778 17.3066 14.0268 17.5557 14.3334 17.5557H14.8891V18.1113H14.3334C14.0266 18.1113 13.7778 18.3602 13.7778 18.667C13.7781 18.9735 14.0268 19.2226 14.3334 19.2227H14.8891V19.7783C14.8895 20.0848 15.1382 20.334 15.4448 20.334C15.7511 20.3337 16 20.0846 16.0004 19.7783V19.2227H17.6664C17.9729 19.2225 18.2218 18.9735 18.2221 18.667C18.2221 18.3603 17.9731 18.1115 17.6664 18.1113H16.0004V17.5557H17.1108C18.031 17.5555 18.7775 16.8088 18.7778 15.8887C18.7775 14.9685 18.031 14.2228 17.1108 14.2227H15.4448ZM8.50043 10C8.71087 10.0001 8.78315 10.0561 9.31 10.6582C9.53679 10.9174 9.86226 11.2548 10.2963 11.5391C10.8459 11.899 11.9268 12.3332 11.6303 12.6299C10.5652 13.695 10.0003 15.0181 10.0004 16.5L9.99945 18.002C9.99953 18.9992 9.99991 19.4144 9.70746 19.707C9.41462 19.9996 9.00003 20 8.00043 20C6.00051 20 5.00044 19.9995 4.50043 19.5C4.00042 19.0004 4.00043 17.326 4.00043 14.5V13C4.00044 12.5 4.00044 12 5.00043 12C5.68307 11.9999 6.23962 11.8245 6.70355 11.5391C7.14545 11.2671 7.4631 10.9174 7.68988 10.6582C8.21718 10.0556 8.28957 10 8.50043 10ZM17.1108 15.334C17.4173 15.3341 17.6662 15.5822 17.6664 15.8887C17.6662 16.1952 17.4173 16.4442 17.1108 16.4443H16.0004V15.334H17.1108ZM12.0004 4C18.3 4.00003 19.4129 4.47302 20.1 6C20.7872 7.52698 21.0004 8.00001 21.0004 9C21.0004 9.99983 20.0554 10.9997 19.0004 11C17.9287 11 17.4308 10.4257 16.9692 9.89258C16.5694 9.43099 16.1962 9.00022 15.5004 9C14.8043 9 14.4305 9.43089 14.0307 9.89258C13.5691 10.4256 13.0717 10.9998 12.0004 11C10.9287 11 10.4308 10.4257 9.96918 9.89258C9.56943 9.43099 9.19623 9.00022 8.50043 9C7.8043 9 7.43053 9.43089 7.0307 9.89258C6.56911 10.4256 6.07174 10.9998 5.00043 11C3.94521 11 3.00041 10 3.00043 9C3.00045 8.00001 3.22486 7.49995 3.89984 6C4.57484 4.50003 5.70048 4 12.0004 4Z" fill="black"/>
</svg>
