<svg width="24" height="24" viewBox="0 0 24 24" fill="none" xmlns="http://www.w3.org/2000/svg">
<path fill-rule="evenodd" clip-rule="evenodd" d="M18 10.7813C21.1019 10.7814 22.9998 12.721 23 15.8906C22.9998 19.0603 21.1019 20.9998 18 21C14.8978 21 13.0002 19.0604 13 15.8906C13.0002 12.7208 14.8978 10.7813 18 10.7813ZM17.4443 13.0527C17.1375 13.0527 16.8887 13.3076 16.8887 13.6211V15.3232H16.333C16.0263 15.3233 15.7776 15.5773 15.7773 15.8906C15.7776 16.2039 16.0263 16.459 16.333 16.459H16.8887V17.0264H16.333C16.0263 17.0264 15.7776 17.2805 15.7773 17.5938C15.7776 17.907 16.0264 18.1621 16.333 18.1621H16.8887V18.7295C16.8891 19.0426 17.1378 19.2978 17.4443 19.2979C17.7507 19.2977 17.9996 19.0425 18 18.7295V18.1621H19.666C19.9726 18.162 20.2214 17.907 20.2217 17.5938C20.2214 17.2805 19.9726 17.0264 19.666 17.0264H18V16.459H19.1103C20.0306 16.4589 20.7771 15.6952 20.7773 14.7549C20.7769 13.8147 20.0305 13.0528 19.1103 13.0527H17.4443ZM12 4C13.3793 3.99987 16.1163 4.00025 16.9482 5.09766C17.5967 5.95365 18.2167 7.11807 18.5029 7.68164C18.5797 7.83293 18.619 7.90856 18.6758 7.93164C18.7328 7.95459 18.8198 7.92232 18.9931 7.85645C19.2035 7.77652 19.4953 7.70383 19.8027 7.74512C20.4998 7.83918 20.9997 8.3829 21 8.82422C21 8.99186 20.9999 9.16039 21 9.3291C21.0003 10.0582 20.9249 10.2592 19.8027 9.95899C19.382 9.84642 18.8142 9.75982 18 9.75977C16.2435 9.75977 14.718 10.313 13.6299 11.4248C12.981 12.0879 12.5273 12.9104 12.2666 13.8467C12.0375 14.6697 11.7031 14.8262 11 14.8262H7.4951C7.01576 14.8262 6.77597 14.8264 6.58299 14.9463C6.39001 15.0666 6.22042 15.39 5.88377 16.0371C5.7341 16.3248 5.52913 16.5398 5.23436 16.54H4.62889C4.12759 16.54 3.8762 16.5406 3.67869 16.4131C3.60072 16.3626 3.52372 16.2902 3.46678 16.2148C3.32294 16.0239 3.29445 15.7726 3.23924 15.2734C2.99998 13.1094 2.99998 10.9222 2.99998 8.82422C3.00022 8.38291 3.50024 7.83921 4.19725 7.74512C4.50461 7.70383 4.79642 7.77653 5.00682 7.85645C5.18008 7.9223 5.26717 7.95456 5.3242 7.93164C5.38101 7.90858 5.42022 7.83294 5.49705 7.68164C5.78325 7.11808 6.40325 5.95366 7.05174 5.09766C7.88365 4.00024 10.6206 3.99987 12 4ZM19.1103 14.1885C19.4168 14.1885 19.6656 14.4418 19.666 14.7549C19.6657 15.0681 19.4169 15.3232 19.1103 15.3232H18V14.1885H19.1103ZM4.63279 9.23731C4.46767 9.2375 4.33219 9.37738 4.34471 9.54981C4.41423 10.4678 4.77391 11.353 5.13279 11.9063C5.41423 12.3385 6.87919 12.5916 7.63865 12.6934C7.78296 12.7121 7.90883 12.5939 7.90916 12.4414V12.0313C7.90894 11.9526 7.87483 11.8778 7.81444 11.8311C7.07623 11.2617 5.2901 10.218 5.13279 10.0586C5.03403 9.95695 4.98014 9.74392 4.95408 9.54883C4.93074 9.3777 4.79773 9.23767 4.63279 9.23731ZM3.22264 5.95899C3.75258 5.6658 4.57584 5.58698 4.84568 5.90723C5.03389 6.13156 5.01662 6.58632 4.88182 6.82129C4.72614 7.09113 4.0957 7.10839 3.81834 7.1084C3.40604 7.10837 3.00391 6.82022 2.99998 6.36524C2.99883 6.19885 3.07846 6.03888 3.22264 5.95899ZM19.1543 5.90723C19.4241 5.58696 20.2474 5.66579 20.7773 5.95899C20.9215 6.03887 21.0011 6.19882 21 6.36524C20.9961 6.82025 20.5939 7.1084 20.1816 7.1084C19.9042 7.10839 19.2738 7.09115 19.1181 6.82129C18.9834 6.58633 18.9661 6.13156 19.1543 5.90723Z" fill="black"/>
</svg>
