<svg width="24" height="24" viewBox="0 0 24 24" fill="none" xmlns="http://www.w3.org/2000/svg">
<path d="M4 9C3 9 3 8.5 3 8C3 5 5 5 12 5C19 5 21 5 21 8C21 8.5 21 9 20 9H4Z" fill="black"/>
<path d="M20 11C21 11 21 11.5 21 12H18.5C15.4624 12 13 14.4624 13 17.5C13 18.8284 13 19 12 19C7.12391 19 4.88962 19 3.86585 17.8868C3 16.9453 3 15.2075 3 12C3 11.5 3 11 4 11H20Z" fill="black"/>
<path d="M18.5 21C20.433 21 22 19.433 22 17.5C22 15.567 20.433 14 18.5 14C16.567 14 15 15.567 15 17.5C15 19.433 16.567 21 18.5 21ZM18 15.5C18 15.2239 18.2239 15 18.5 15C18.7761 15 19 15.2239 19 15.5V17.2929L19.8536 18.1464C20.0488 18.3417 20.0488 18.6583 19.8536 18.8536C19.6583 19.0488 19.3417 19.0488 19.1464 18.8536L18.1464 17.8536C18.0527 17.7598 18 17.6326 18 17.5V15.5Z" fill="black"/>
</svg>
