<svg width="24" height="24" viewBox="0 0 24 24" fill="none" xmlns="http://www.w3.org/2000/svg">
<path fill-rule="evenodd" clip-rule="evenodd" d="M6 5.5C6 4.67157 6.67157 4 7.5 4H11.5C12.7619 4 14.1576 4.10644 15.2428 4.79701C16.5029 5.59889 17 6.92851 17 8.5C17 10.0715 16.5029 11.4011 15.2428 12.203C14.1576 12.8936 12.7619 13 11.5 13H9V14H10.5C11.3284 14 12 14.6716 12 15.5C12 16.3284 11.3284 17 10.5 17H9V18.5C9 19.3284 8.32843 20 7.5 20C6.67157 20 6 19.3284 6 18.5V17H4.5C3.67157 17 3 16.3284 3 15.5C3 14.6716 3.67157 14 4.5 14H6V13H4.5C3.67157 13 3 12.3284 3 11.5C3 10.6716 3.67157 10 4.5 10H6V5.5ZM9 10H11.5C12.7381 10 13.3424 9.85644 13.6322 9.67201C13.7471 9.59889 14 9.42851 14 8.5C14 7.57149 13.7471 7.40111 13.6322 7.32799C13.3424 7.14356 12.7381 7 11.5 7H9V10Z" fill="black"/>
<path fill-rule="evenodd" clip-rule="evenodd" d="M22 19.5882C22 21 20.2921 21 17.5 21C14.7079 21 13 21 13 19.5882C13 17.9412 15.75 13 17.5 13C19.25 13 22 17.9412 22 19.5882ZM17.5 14.8824C17.2239 14.8824 17 15.093 17 15.3529V17.2353C17 17.4952 17.2239 17.7059 17.5 17.7059C17.7761 17.7059 18 17.4952 18 17.2353V15.3529C18 15.093 17.7761 14.8824 17.5 14.8824ZM17.5 19.5882C17.7761 19.5882 18 19.3775 18 19.1176C18 18.8577 17.7761 18.6471 17.5 18.6471C17.2239 18.6471 17 18.8577 17 19.1176C17 19.3775 17.2239 19.5882 17.5 19.5882Z" fill="black"/>
</svg>
