<svg width="24" height="24" viewBox="0 0 24 24" fill="none" xmlns="http://www.w3.org/2000/svg">
<path fill-rule="evenodd" clip-rule="evenodd" d="M5.17359 4.67799C4.82405 3.88479 4.86273 3.24386 6.63019 2.51471L8.66943 1.67343C10.8321 0.781257 11.1402 0.769805 13.3305 1.67343L15.3698 2.51471C17.1372 3.24386 17.176 3.88479 16.8264 4.67799C16.6845 5 16.0587 5 15.5 5H6.50001C5.94128 5 5.31549 5 5.17359 4.67799Z" fill="black"/>
<path fill-rule="evenodd" clip-rule="evenodd" d="M7.441 6.94403C7.26743 6.84192 7.09861 6.73606 6.93398 6.62797L6.91216 6.61365C6.35635 6.24886 6.08711 6.07215 6.93398 5.91298C8.6657 5.58749 13.3343 5.58749 15.066 5.91297C15.9129 6.07213 15.6436 6.24884 15.0878 6.61364L15.066 6.62797C14.9014 6.73606 14.7326 6.84192 14.559 6.94403C13.5445 7.54078 12.3825 7.99999 11 7.99999C9.6175 7.99999 8.45549 7.54078 7.441 6.94403Z" fill="black"/>
<path fill-rule="evenodd" clip-rule="evenodd" d="M11 8.99999C12.6175 8.99999 13.9555 8.4592 15.066 7.80596C15.7765 7.38803 16 7.34375 16 8C16 11 14 13 11 13C8 13 6 11 6 8C6 7.35938 6.2235 7.38803 6.93398 7.80596C8.0445 8.4592 9.38248 8.99999 11 8.99999Z" fill="black"/>
<path fill-rule="evenodd" clip-rule="evenodd" d="M6.50001 14C7.12006 14.002 7.4838 14.1733 7.90908 14.3734C8.20643 14.5134 8.53385 14.6675 9 14.7879C9.31985 14.8705 9.58873 14.9274 9.81473 14.9752C10.926 15.2103 11.0005 15.2261 10.9997 17C10.9994 17.6667 10.9987 18.3333 10.9974 19C11 20.882 10.993 21.1279 9 20.882C4.89217 20.3753 3 18.37 3 17.5C3 16.5 5.5 13.9967 6.50001 14Z" fill="black"/>
<path fill-rule="evenodd" clip-rule="evenodd" d="M13 18C13 15.6 14.6 14 17 14C19.4 14 21 15.6 21 18C21 20.4 19.4 22 17 22C14.6 22 13 20.4 13 18ZM17 16C16.4477 16 16 16.4477 16 17V19C16 19.5523 16.4477 20 17 20C17.5523 20 18 19.5523 18 19V17C18 16.4477 17.5523 16 17 16Z" fill="black"/>
</svg>
