<svg width="24" height="24" viewBox="0 0 24 24" fill="none" xmlns="http://www.w3.org/2000/svg">
<path d="M9 5.5C9 4.67157 9.67157 4 10.5 4H14.5C15.7619 4 17.1576 4.10644 18.2428 4.79701C19.5029 5.59889 20 6.92851 20 8.5C20 10.0715 19.5029 11.4011 18.2428 12.203C17.1576 12.8936 15.7619 13 14.5 13H12V14H16.5C17.3284 14 18 14.6716 18 15.5C18 16.3284 17.3284 17 16.5 17H12V18.5C12 19.3284 11.3284 20 10.5 20C9.67157 20 9 19.3284 9 18.5V16.9146C8.4174 16.7087 8 16.1531 8 15.5C8 14.8469 8.4174 14.2913 9 14.0854V13H6.30278L6.74808 13.6679C7.2076 14.3572 7.02134 15.2885 6.33205 15.7481C5.64276 16.2076 4.71145 16.0213 4.25192 15.3321L2.25192 12.3321C1.91603 11.8282 1.91603 11.1718 2.25192 10.6679L4.25192 7.66795C4.71145 6.97866 5.64276 6.7924 6.33205 7.25192C7.02134 7.71145 7.2076 8.64276 6.74808 9.33205L6.30278 10H9V5.5ZM12 10H14.5C15.7381 10 16.3424 9.85644 16.6322 9.67201C16.7471 9.59889 17 9.42851 17 8.5C17 7.57149 16.7471 7.40111 16.6322 7.32799C16.3424 7.14356 15.7381 7 14.5 7H12V10Z" fill="black"/>
</svg>
