<svg width="24" height="24" viewBox="0 0 24 24" fill="none" xmlns="http://www.w3.org/2000/svg">
<path d="M11.9998 4.03113C15.4381 4.12523 15.9998 4.50109 15.9998 5.99988C15.9998 6.49977 15.9997 6.88536 14.9998 7.09167C14.4644 7.20218 14.0207 7.41855 13.6844 7.77136C13.1618 8.32 12.9999 9.09269 12.9998 9.953V12.4999C13 12.7759 13.2238 12.9998 13.4998 12.9999C13.7759 12.9999 13.9997 12.7759 13.9998 12.4999V9.99988C13.9999 8.49997 14.4999 7.99989 15.9998 7.99988H17.9998C18.9998 7.99988 19.4999 8.49993 20.4998 9.99988C20.6358 10.2038 20.7699 10.3975 20.8983 10.5829C21.5108 11.4673 21.9998 12.1734 21.9998 12.9999V16.9999C21.9998 17.9997 21.4429 17.9963 20.8319 17.9921C20.4222 19.1613 19.3089 19.9999 17.9998 19.9999C16.6937 19.9999 15.5826 19.165 15.1707 17.9999H9.82895C9.41705 19.165 8.30599 19.9999 6.99985 19.9999C5.69154 19.9999 4.57902 19.1622 4.16879 17.994C2.00041 18.0003 1.99985 16.8634 1.99985 13.9999C1.99985 13.9716 1.99986 13.9435 1.99985 13.9159C1.99893 12.4816 1.99865 11.9999 4.49985 11.9999C7.53734 11.9999 9.99973 9.53734 9.99985 6.49988C9.99984 6.33143 9.99221 6.16446 9.97739 5.99988C9.80002 4.03146 10.4999 3.99007 11.9998 4.03113ZM6.99985 15.9999C6.44762 15.9999 5.9999 16.4477 5.99985 16.9999C5.99997 17.552 6.44766 17.9998 6.99985 17.9999C7.55206 17.9999 7.99973 17.5521 7.99985 16.9999C7.9998 16.4476 7.5521 15.9999 6.99985 15.9999ZM17.9998 15.9999C17.4476 15.9999 16.9999 16.4477 16.9998 16.9999C17 17.552 17.4477 17.9998 17.9998 17.9999C18.5521 17.9999 18.9997 17.5521 18.9998 16.9999C18.9998 16.4476 18.5521 15.9999 17.9998 15.9999ZM4.48911 2.99988C6.66706 3 7.99978 4.36222 7.99985 6.58777C7.99956 8.81299 6.66688 10.1746 4.48911 10.1747C2.31128 10.1746 0.978651 8.81302 0.978363 6.58777C0.978433 4.36219 2.3111 2.99997 4.48911 2.99988ZM4.09946 4.5946C3.88417 4.5946 3.70906 4.77311 3.70883 4.99304V6.18835H3.31918C3.10382 6.18836 2.92865 6.36772 2.92856 6.58777C2.92894 6.80756 3.104 6.9862 3.31918 6.98621H3.70883V7.38464H3.31918C3.10386 7.38465 2.92871 7.56309 2.92856 7.78308C2.92877 8.00302 3.1039 8.18249 3.31918 8.1825H3.70883V8.58093C3.70926 8.80069 3.8843 8.97937 4.09946 8.97937C4.31439 8.97909 4.48868 8.80052 4.48911 8.58093V8.1825H5.65903C5.87428 8.18245 6.04944 8.003 6.04965 7.78308C6.0495 7.56311 5.87432 7.38469 5.65903 7.38464H4.48911V6.98621H5.26938C5.91528 6.9859 6.43912 6.44996 6.4393 5.78992C6.43904 5.12994 5.91524 4.59491 5.26938 4.5946H4.09946ZM5.26938 5.39246C5.48439 5.39276 5.65877 5.5702 5.65903 5.78992C5.65884 6.0097 5.48443 6.18805 5.26938 6.18835H4.48911V5.39246H5.26938Z" fill="black"/>
</svg>
