<svg width="24" height="24" viewBox="0 0 24 24" fill="none" xmlns="http://www.w3.org/2000/svg">
<path d="M9.5 4C8.67157 4 8 4.67157 8 5.5V10H6.5C5.67157 10 5 10.6716 5 11.5C5 12.3284 5.67157 13 6.5 13H8V14H6.5C5.67157 14 5 14.6716 5 15.5C5 16.3284 5.67157 17 6.5 17H8V18.5C8 19.3284 8.67157 20 9.5 20C10.3284 20 11 19.3284 11 18.5V17H15.5C16.3284 17 17 16.3284 17 15.5C17 14.6716 16.3284 14 15.5 14H11V13H13.5C14.7619 13 16.1576 12.8936 17.2428 12.203C18.5029 11.4011 19 10.0715 19 8.5C19 6.92851 18.5029 5.59889 17.2428 4.79701C16.1576 4.10644 14.7619 4 13.5 4H9.5ZM13.5 10H11V7H13.5C14.7381 7 15.3424 7.14356 15.6322 7.32799C15.7471 7.40111 16 7.57149 16 8.5C16 9.42851 15.7471 9.59889 15.6322 9.67201C15.3424 9.85644 14.7381 10 13.5 10Z" fill="black"/>
</svg>
