<svg width="24" height="24" viewBox="0 0 24 24" fill="none" xmlns="http://www.w3.org/2000/svg">
<path d="M19.0003 17C19.9429 17 20.4144 17.0001 20.7073 17.293C21.0001 17.5859 21.0003 18.0573 21.0003 19C21.0003 19.9427 21.0001 20.4141 20.7073 20.707C20.4144 20.9999 19.9429 21 19.0003 21H5.00027C4.05761 21 3.58615 20.9998 3.29324 20.707C3.00035 20.4141 3.00027 19.9428 3.00027 19C3.00027 18.0572 3.00035 17.5859 3.29324 17.293C3.58615 17.0002 4.05761 17 5.00027 17H19.0003ZM14.9827 9C16.4345 9 17.161 9.00027 17.6956 9.40332C18.2301 9.80664 18.4305 10.5052 18.8294 11.9014L19.2718 13.4502C19.6058 14.6192 19.7729 15.2047 19.4729 15.6025C19.1728 16.0001 18.5645 16 17.3489 16H6.65164C5.43603 16 4.82776 16 4.52762 15.6025C4.22755 15.2047 4.39473 14.6194 4.72879 13.4502L5.17117 11.9014C5.57011 10.5051 5.7703 9.80662 6.30496 9.40332C6.83959 9.00037 7.56606 9 9.01785 9H14.9827ZM8.44949 11C8.06491 11 7.87206 11.0003 7.71805 11.082C7.64615 11.1203 7.58118 11.171 7.52664 11.2314C7.40994 11.361 7.36309 11.5477 7.26981 11.9209C7.16541 12.3385 7.11335 12.5477 7.18484 12.7061C7.21776 12.7788 7.26769 12.843 7.33035 12.8926C7.46669 13.0002 7.68237 13 8.11258 13H12.888C13.3182 13 13.5339 13.0003 13.6702 12.8926C13.7328 12.843 13.7828 12.7788 13.8157 12.7061C13.8871 12.5477 13.8351 12.3383 13.7307 11.9209C13.6375 11.5478 13.5905 11.361 13.4739 11.2314C13.4194 11.171 13.3544 11.1203 13.2825 11.082C13.1285 11.0002 12.9356 11 12.5511 11H8.44949ZM15.0003 3C15.9429 3 16.4144 3.0001 16.7073 3.29297C17.0001 3.58587 17.0003 4.05734 17.0003 5C17.0003 5.94266 17.0001 6.41413 16.7073 6.70703C16.4716 6.94277 16.12 6.98905 15.5003 6.99805C15.2072 7.0023 15.0358 7.01008 14.9876 7.5C14.9716 7.6624 14.9353 7.77189 14.8538 7.85352C14.7074 7.99993 14.4715 8 14.0003 8C13.529 8 13.2932 7.99983 13.1468 7.85352C13.0651 7.77187 13.029 7.66248 13.013 7.5C12.9648 7.01019 12.8165 7.00264 12.5003 6.99805C11.8805 6.98906 11.529 6.94268 11.2932 6.70703C11.0003 6.41414 11.0003 5.94281 11.0003 5C11.0003 4.05719 11.0003 3.58586 11.2932 3.29297C11.5861 3.00021 12.0576 3 13.0003 3H15.0003Z" fill="black"/>
</svg>
