<svg width="24" height="24" viewBox="0 0 24 24" fill="none" xmlns="http://www.w3.org/2000/svg">
<path d="M5.79108 8.79102C5.33081 9.25122 4.73541 9.54639 4 9.72974C3.84924 9.76733 3.70624 9.7937 3.57123 9.81348C3.39905 9.83887 3.23987 9.85303 3.09442 9.86597L3.08051 9.86743C2.38593 9.92896 2.00537 9.96265 2.00128 11C2 11.3164 2 11.6494 2 12C2 12.3506 2 12.6836 2.00128 13C2.00537 14.0374 2.38593 14.071 3.08051 14.1326L3.08527 14.1333C3.34698 14.1565 3.65295 14.1836 4 14.2703C4.73541 14.4536 5.33081 14.7488 5.79108 15.209C6.44446 15.8623 6.76501 16.7878 6.9054 18C7.01776 18.9695 7.67114 18.9763 8.88391 18.989L9 18.9902C9.88373 19 10.879 19 12 19C13 18.989 13 18.8284 13 17.5C13 15.9814 12.5686 15.9897 12.1066 15.9985L12.0443 15.9998L12 16C9.79083 16 8 14.2092 8 12C8 9.79077 9.79083 8 12 8C14.2092 8 16 9.79077 16 12C16 12.4902 16.2048 12.4324 16.9544 12.22L17 12.207C17.4768 12.0723 17.98 12 18.5 12C19.4002 12 20.2499 12.2163 21 12.5996C21.5 12.8552 22 13 22 12L21.9998 11.4153L21.9987 11C21.9946 9.96265 21.6141 9.92896 20.9195 9.86743L20.9147 9.8667C20.653 9.84351 20.347 9.81641 20 9.72974C19.2646 9.54639 18.6692 9.25122 18.2089 8.79102C17.5555 8.1377 17.235 7.21216 17.0946 6C16.9822 5.03052 16.3289 5.02368 15.1161 5.01099L15 5.00977C14.1163 5 13.121 5 12 5C10.879 5 9.88373 5 9 5.00977L8.91742 5.01074C7.68311 5.02417 7.01764 5.03125 6.9054 6C6.76501 7.21216 6.44446 8.1377 5.79108 8.79102Z" fill="black"/>
<path d="M12 10C10.8954 10 10 10.8955 10 12C10 13.1045 10.8954 14 12 14C13.1046 14 14 13.1045 14 12C14 10.8955 13.1046 10 12 10Z" fill="black"/>
<path d="M2.85669 6.22388C2.47815 6.65015 2.26691 7.22485 2.14899 8C2.00604 8.93945 2.05792 9.01782 3 8.89722C4.01965 8.76685 4.66144 8.50659 5.08392 8.08398C5.50647 7.66138 5.76678 7.01978 5.89722 6C6.01404 5.08643 5.88995 5.10107 5 5.25293C3.97552 5.42773 3.3009 5.72339 2.85669 6.22388Z" fill="black"/>
<path d="M2.14899 16C2.26691 16.7751 2.47815 17.3499 2.85669 17.7761C3.3009 18.2766 3.97552 18.5723 5 18.7471C5.88995 18.8989 6.01404 18.9136 5.89722 18C5.76678 16.9802 5.50647 16.3386 5.08392 15.916C4.66144 15.4934 4.01965 15.2332 3 15.1028C2.05792 14.9822 2.00604 15.0605 2.14899 16Z" fill="black"/>
<path d="M21.1433 6.22388C21.5219 6.65015 21.7331 7.22485 21.851 8C21.994 8.93945 21.9421 9.01782 21 8.89722C19.9803 8.76685 19.3386 8.50659 18.9161 8.08398C18.4935 7.66138 18.2332 7.01978 18.1028 6C17.986 5.08643 18.11 5.10107 19 5.25293C20.0245 5.42773 20.6991 5.72339 21.1433 6.22388Z" fill="black"/>
<path d="M22 18.5C22 17.2161 21.8276 16.5588 20.9418 16.2476C20.9277 16.1221 20.9108 16.0027 20.8908 15.8896C20.8134 15.4512 20.6851 15.074 20.4694 14.772C20.0063 14.1235 19.2797 14 18.5 14C17.7203 14 16.9937 14.1235 16.5306 14.772C16.3149 15.074 16.1866 15.4512 16.1092 15.8896C16.0892 16.0027 16.0723 16.1221 16.0582 16.2476C15.1724 16.5588 15 17.2161 15 18.5C15 20.5454 15.4375 21 18.5 21C21.5625 21 22 20.5454 22 18.5ZM18.5 16C17.9523 16 17.4886 16.0146 17.0963 16.05C17.1594 15.6997 17.2488 15.4868 17.3444 15.353C17.5063 15.1265 17.7797 15 18.5 15C19.2203 15 19.4937 15.1265 19.6556 15.353C19.6874 15.3975 19.7184 15.4504 19.748 15.5144C19.8076 15.6431 19.8615 15.8159 19.9037 16.05C19.5114 16.0146 19.0477 16 18.5 16ZM18.5 19C18.2239 19 18 18.7761 18 18.5C18 18.2239 18.2239 18 18.5 18C18.7761 18 19 18.2239 19 18.5C19 18.7761 18.7761 19 18.5 19Z" fill="black"/>
</svg>
