<svg width="24" height="24" viewBox="0 0 24 24" fill="none" xmlns="http://www.w3.org/2000/svg">
<path d="M4 9C3 9 3 8.5 3 8C3 5 5 5 12 5C19 5 21 5 21 8C21 8.5 21 9 20 9H4Z" fill="black"/>
<path d="M20.75 12.75C20.9292 12.5708 20.9799 12.2632 20.9943 11.7352C20.9682 11.3375 20.8215 11 20 11H4C3 11 3 11.5 3 12C3 15.2075 3 16.9453 3.86585 17.8868C4.88962 19 7.12391 19 12 19C13.5 19 15 19 15 17C15 15 15 14 15.5 13.5C16 13 17 13 19 13C20 13 20.5 13 20.75 12.75Z" fill="black"/>
<path d="M18 15C18 15.5523 17.5523 16 17 16C16.4477 16 16 15.5523 16 15C16 14.4477 16.4477 14 17 14C17.5523 14 18 14.4477 18 15Z" fill="black"/>
<path d="M17.7071 19.7071L21.7071 15.7071C22.0976 15.3166 22.0976 14.6834 21.7071 14.2929C21.3166 13.9024 20.6834 13.9024 20.2929 14.2929L16.2929 18.2929C15.9024 18.6834 15.9024 19.3166 16.2929 19.7071C16.6834 20.0976 17.3166 20.0976 17.7071 19.7071Z" fill="black"/>
<path d="M20 19C20 19.5523 20.4477 20 21 20C21.5523 20 22 19.5523 22 19C22 18.4477 21.5523 18 21 18C20.4477 18 20 18.4477 20 19Z" fill="black"/>
</svg>
