<svg width="24" height="24" viewBox="0 0 24 24" fill="none" xmlns="http://www.w3.org/2000/svg">
<path d="M18 12C21.102 12.0002 22.9999 13.898 23 17C22.9998 20.1019 21.1019 21.9998 18 22C14.898 21.9999 13.0002 20.1019 13 17C13.0001 13.8979 14.898 12.0001 18 12ZM12 3C18.8669 3 20.6745 4.1564 20.9561 10C21.0112 11.144 21.0517 11.4564 19.5 11.1436C19.024 11.0476 18.5222 11 18 11C16.2436 11.0001 14.718 11.5418 13.6299 12.6299C12.5419 13.718 12.0001 15.2436 12 17L12.0068 17.3262C12.0375 18.1072 12.1795 18.8381 12.4326 19.5C12.9058 20.7376 13.0003 21 12 21C4.412 21 3 19.588 3 12C3 4.412 4.412 3 12 3ZM17.4443 14.2227C17.1377 14.2229 16.8887 14.4716 16.8887 14.7783V16.4443H16.333C16.0264 16.4445 15.7775 16.6934 15.7773 17C15.7776 17.3065 16.0265 17.5555 16.333 17.5557H16.8887V18.1113H16.333C16.0264 18.1115 15.7773 18.3603 15.7773 18.667C15.7776 18.9734 16.0265 19.2224 16.333 19.2227H16.8887V19.7783C16.8891 20.0847 17.1379 20.3338 17.4443 20.334C17.7508 20.3338 17.9996 20.0847 18 19.7783V19.2227H19.666C19.9726 19.2226 20.2214 18.9735 20.2217 18.667C20.2217 18.3602 19.9728 18.1114 19.666 18.1113H18V17.5557H19.1104C20.0306 17.5556 20.7771 16.8089 20.7773 15.8887C20.7771 14.9684 20.0306 14.2227 19.1104 14.2227H17.4443ZM6 15C5.44771 15 5 15.4477 5 16C5 16.5523 5.44771 17 6 17H9C9.55228 17 10 16.5523 10 16C10 15.4477 9.55228 15 9 15H6ZM19.1104 15.334C19.417 15.3341 19.6658 15.5821 19.666 15.8887C19.6658 16.1952 19.417 16.4443 19.1104 16.4443H18V15.334H19.1104ZM6 11C5.44771 11 5 11.4477 5 12C5 12.5523 5.44771 13 6 13H11C11.5523 13 12 12.5523 12 12C12 11.4477 11.5523 11 11 11H6ZM6 6C5.44772 6 5 6.44772 5 7C5 7.55228 5.44772 8 6 8C6.55228 8 7 7.55228 7 7C7 6.44772 6.55228 6 6 6ZM9 6C8.44771 6 8 6.44772 8 7C8 7.55228 8.44771 8 9 8C9.55229 8 10 7.55228 10 7C10 6.44772 9.55229 6 9 6ZM12 6C11.4477 6 11 6.44772 11 7C11 7.55228 11.4477 8 12 8C12.5523 8 13 7.55228 13 7C13 6.44772 12.5523 6 12 6Z" fill="black"/>
</svg>
