<svg width="24" height="24" viewBox="0 0 24 24" fill="none" xmlns="http://www.w3.org/2000/svg">
<path fill-rule="evenodd" clip-rule="evenodd" d="M1.73476 7.00002C1.86618 7.00026 1.97351 7.11219 1.97695 7.25002C1.97902 7.33462 1.98554 13.9161 1.98964 14C2.10564 16.3196 3.00821 17.6168 3.40664 18C3.82725 18.4044 4.36057 18.9999 5.79042 19H18.1859C19.9587 19 20.808 18.1061 21.0199 18.7549C21.3246 19.6878 19.1398 20 18.1859 20H5.79042C5.3135 20 4.12887 20.0202 3.11953 19.0498C2.17538 18.142 1.57453 16.5671 1.50624 14C1.50405 13.9149 1.49952 7.33436 1.49843 7.25002C1.49677 7.11223 1.6034 7.00028 1.73476 7.00002ZM12.4652 4.00002C13.5298 4.00002 14.4757 3.99916 15.3158 4.00881C15.3191 4.00885 15.3232 4.00975 15.3266 4.00979L15.4369 4.01076C16.5929 4.02345 17.2165 4.03072 17.3236 5.00002C17.4575 6.21204 17.7632 7.13777 18.3861 7.79104C18.6603 8.07843 18.9848 8.30112 19.3607 8.47268C19.4359 8.50698 19.5129 8.54003 19.5922 8.57033C19.7507 8.63088 19.9181 8.68373 20.0932 8.72951C20.1733 8.7505 20.252 8.76747 20.3275 8.78225L20.5385 8.8174C20.6024 8.8267 20.6649 8.8321 20.725 8.83889C20.8089 8.84826 20.8891 8.85915 20.9652 8.86623L20.9701 8.86721C21.1869 8.88735 21.3714 8.90559 21.5219 8.95607C21.5722 8.97298 21.6189 8.99285 21.6615 9.01857C21.8804 9.15055 21.9962 9.41633 21.9984 10L22.0004 11C22.0004 11.3505 21.9997 11.6837 21.9984 12C21.9945 13.0368 21.6319 13.0714 20.9701 13.1328H20.9594C20.8246 13.1455 20.6768 13.16 20.518 13.1836C20.4305 13.1968 20.339 13.2127 20.2445 13.2334C20.1952 13.2444 20.1444 13.2572 20.0932 13.2705C19.3923 13.4538 18.8249 13.7491 18.3861 14.209C17.7632 14.8623 17.4575 15.7879 17.3236 17C17.2166 17.9684 16.5811 17.9759 15.4047 17.9893L15.3266 17.9903C14.4841 18 13.5338 18 12.4652 18C12.4622 17.9999 12.4584 17.999 12.4555 17.999C11.3945 17.999 10.4514 17.9999 9.61367 17.9903C9.61058 17.9902 9.60698 17.9903 9.6039 17.9903L9.49355 17.9893C8.33746 17.9766 7.71396 17.9694 7.60683 17C7.47297 15.7879 7.16729 14.8623 6.54433 14.209C6.10559 13.7491 5.53817 13.4538 4.8373 13.2705C4.50669 13.184 4.21462 13.157 3.96523 13.1338L3.96035 13.1328C3.71216 13.1098 3.506 13.0902 3.34511 13.0205C3.30631 13.0037 3.27119 12.9824 3.23769 12.959C3.12269 12.8784 3.03879 12.7555 2.98867 12.5567C2.97271 12.4935 2.95876 12.423 2.9496 12.3438C2.94382 12.2936 2.93993 12.2399 2.93691 12.1826C2.93388 12.1255 2.93227 12.0647 2.93203 12C2.93172 11.9195 2.93217 11.8376 2.93203 11.7549C2.93134 11.5128 2.93007 11.2612 2.93007 11C2.93007 10.6495 2.9308 10.3164 2.93203 10C2.93594 8.96299 3.2984 8.9287 3.96035 8.86721H3.97109C4.10595 8.85452 4.25356 8.8401 4.41249 8.81643C4.49999 8.80326 4.59136 8.78733 4.68593 8.76662C4.73533 8.75566 4.78605 8.7429 4.8373 8.72951C5.53819 8.5462 6.10559 8.251 6.54433 7.79104C7.16731 7.13772 7.47298 6.21216 7.60683 5.00002C7.71385 4.03142 8.34917 4.02419 9.52578 4.01076L9.6039 4.00979C10.4464 4.00002 11.3965 4.00002 12.4652 4.00002ZM3.58535 14.0674C3.67242 14.075 3.77187 14.0875 3.88417 14.1026C4.85611 14.233 5.46872 14.4935 5.87148 14.916C5.9076 14.9539 5.94037 14.9956 5.97402 15.0371C6.31554 15.4587 6.53272 16.0721 6.64589 17C6.75728 17.9136 6.63897 17.8989 5.79042 17.7471C4.81403 17.5723 4.17096 17.2766 3.74746 16.7764C3.734 16.7605 3.72239 16.7429 3.70937 16.7266C3.3732 16.3055 3.18091 15.7462 3.07265 15C3.01307 14.5893 2.98912 14.343 3.05605 14.2061C3.10388 14.1084 3.19787 14.066 3.35878 14.0596L3.58535 14.0674ZM21.0473 14.1026C21.9448 13.9821 21.9941 14.0608 21.8578 15C21.7454 15.775 21.5439 16.3502 21.183 16.7764C20.7595 17.2766 20.1163 17.5723 19.14 17.7471C18.2915 17.8989 18.1732 17.9134 18.2846 17C18.4089 15.9803 18.6571 15.3386 19.06 14.916C19.4628 14.4935 20.0752 14.2329 21.0473 14.1026ZM12.4652 7.00002C10.3633 7.00018 8.65784 8.78354 8.65078 10.9863C8.65081 10.9908 8.65175 10.9955 8.65175 11C8.65176 11.1381 8.65825 11.2747 8.67128 11.4092C8.6908 11.6107 8.72491 11.8076 8.77187 11.999C9.14801 13.533 10.3699 14.7114 11.8852 14.9541C12.0111 14.9743 12.1392 14.9873 12.2689 14.9942C12.3337 14.9976 12.3996 14.999 12.4652 14.999C14.5681 14.9987 16.2736 13.2142 16.2787 11.0098C16.2787 11.0066 16.2787 11.0033 16.2787 11C16.2787 8.79099 14.5714 7.00028 12.4652 7.00002ZM12.4652 9.00002C12.7283 9.00009 12.9794 9.0561 13.2074 9.15725C13.3214 9.20788 13.4302 9.26991 13.5316 9.34182C14.0387 9.70128 14.3724 10.3099 14.3725 11C14.3723 12.1042 13.5181 12.9997 12.4652 13V12.999C11.4122 12.9989 10.558 12.1044 10.558 11C10.558 10.9254 10.5631 10.8518 10.5707 10.7793C10.5794 10.6965 10.5937 10.6156 10.6117 10.5362C10.7823 9.78414 11.356 9.19554 12.0814 9.04006C12.2053 9.0135 12.3339 9.00005 12.4652 9.00002ZM5.79042 4.25295C6.63896 4.1011 6.75727 4.08648 6.64589 5.00002C6.52153 6.01979 6.27338 6.6614 5.8705 7.084C5.46767 7.50655 4.85533 7.76712 3.8832 7.89748C2.98552 8.01797 2.93639 7.93927 3.07265 7.00002C3.18508 6.22495 3.38656 5.6499 3.74746 5.22365C4.17097 4.72344 4.81402 4.42772 5.79042 4.25295ZM18.6322 4.17678C18.6966 4.18103 18.7707 4.19096 18.8549 4.20412C18.939 4.21726 19.0341 4.23399 19.14 4.25295C19.628 4.34031 20.0329 4.45802 20.3685 4.61623C20.5366 4.69543 20.6874 4.78487 20.8227 4.88576C20.9382 4.97205 21.0402 5.06896 21.1342 5.17287C21.1499 5.19025 21.1679 5.20576 21.183 5.22365C21.5439 5.6499 21.7454 6.22494 21.8578 7.00002C21.9344 7.52805 21.952 7.78416 21.7934 7.88576C21.7582 7.90821 21.7143 7.92309 21.6605 7.93166C21.6335 7.93598 21.6039 7.93915 21.5717 7.94045C21.4703 7.94444 21.3422 7.93228 21.183 7.91311C21.1399 7.90792 21.0941 7.9039 21.0463 7.89748C20.0742 7.7671 19.4618 7.50657 19.059 7.084C18.8046 6.81705 18.6126 6.46234 18.474 5.98049C18.3931 5.69961 18.3304 5.37551 18.2846 5.00002C18.2498 4.71493 18.2369 4.51996 18.2621 4.39162C18.2924 4.23756 18.3772 4.17908 18.5424 4.17482C18.57 4.17411 18.5999 4.17466 18.6322 4.17678Z" fill="black"/>
</svg>
