<svg width="24" height="24" viewBox="0 0 24 24" fill="none" xmlns="http://www.w3.org/2000/svg">
<path d="M22.0185 9.63787L21.9564 9.63678C21.8869 9.63556 21.8242 9.63239 21.7678 9.62953C21.4426 9.61305 21.3278 9.60724 21.3278 10.051C21.3278 10.6713 21.3065 10.6713 20.697 10.6713C19.992 10.6713 19.887 10.5723 19.3974 10.1107L14.1219 5.14828C14.0695 5.09897 14.0203 5.05323 13.9745 5.01058C13.3506 4.43008 13.3406 4.42073 14.0241 3.72968C15.501 2.23646 16.5717 3.31363 17.7302 4.47919C17.9546 4.70491 18.1823 4.93396 18.4168 5.14828L21.9564 8.38275C23.3557 9.66147 23.3193 9.66083 22.0185 9.63787Z" fill="black"/>
<path d="M6.37467 5.46594L3.38404 8.58918C1.69347 10.3547 1.39038 10.6712 3.38404 10.6713L3.5243 10.6711C3.93769 10.67 4.15177 10.6694 4.26255 10.7761C4.38153 10.8907 4.38134 11.129 4.38096 11.6233L4.38092 16.9178C4.38091 18.4794 4.87935 19 6.37467 19H8.86686C9.86373 19 9.86373 18.8186 9.62923 17.9588C9.45316 17.3134 9.3653 16.6146 9.3653 15.8768C9.3653 14.048 9.90496 12.4596 10.9897 11.3267C12.0745 10.1938 13.5955 9.63026 15.3466 9.63026C17.3403 9.63026 17.114 9.42331 15.3466 7.8083L12.7832 5.46594C9.93499 2.86326 8.86686 2.86323 6.37467 5.46594Z" fill="black"/>
<path d="M16 15.4444H17.1111C17.4179 15.4444 17.6667 15.1957 17.6667 14.8889C17.6667 14.5821 17.4179 14.3333 17.1111 14.3333H16V15.4444Z" fill="black"/>
<path d="M16 21C19.1023 21 21 19.1023 21 16C21 12.8977 19.1023 11 16 11C12.8977 11 11 12.8977 11 16C11 19.1023 12.8977 21 16 21ZM14.8889 13.7778C14.8889 13.471 15.1376 13.2222 15.4444 13.2222H17.1111C18.0316 13.2222 18.7778 13.9684 18.7778 14.8889C18.7778 15.8094 18.0316 16.5556 17.1111 16.5556H16V17.1111H17.6667C17.9735 17.1111 18.2222 17.3598 18.2222 17.6667C18.2222 17.9735 17.9735 18.2222 17.6667 18.2222H16V18.7778C16 19.0846 15.7513 19.3333 15.4444 19.3333C15.1376 19.3333 14.8889 19.0846 14.8889 18.7778V18.2222H14.3333C14.0265 18.2222 13.7778 17.9735 13.7778 17.6667C13.7778 17.3598 14.0265 17.1111 14.3333 17.1111H14.8889V16.5556H14.3333C14.0265 16.5556 13.7778 16.3068 13.7778 16C13.7778 15.6932 14.0265 15.4444 14.3333 15.4444H14.8889V13.7778Z" fill="black"/>
</svg>
