<svg width="24" height="24" viewBox="0 0 24 24" fill="none" xmlns="http://www.w3.org/2000/svg">
<path fill-rule="evenodd" clip-rule="evenodd" d="M3.00027 8.5459C3.00028 8.05078 3.06617 8.03877 3.50027 8.22266C3.80237 8.35061 4.13303 8.45711 4.47391 8.5459C5.72893 8.87269 7.27516 9 8.50027 9C9.72543 8.99998 11.2717 8.87271 12.5266 8.5459C12.8675 8.4571 13.1982 8.35062 13.5003 8.22266C13.9242 8.04312 14.0003 8.09385 14.0003 8.5459C14.0003 9 13.8848 9.50039 13.2346 9.87891C11.3004 11.005 10.0003 13.1006 10.0003 15.5C10.0003 17.14 10.6087 18.6416 11.6116 19.7852C12.0002 20.2283 12.1495 20.566 11.0003 20.7803C10.2504 20.92 9.40069 21 8.50027 21C5.46306 21 3.00084 20.1094 3.00027 19.0107C3.00028 18.5459 3.00027 18.0915 3.00027 17.668C3.00027 16.6583 3.0003 16.6408 3.77469 16.9473C4.74186 17.33 6.05227 17.5748 7.49344 17.6221C7.76906 17.6308 8.00084 17.4143 8.01004 17.1387C8.01906 16.863 7.80224 16.6315 7.52664 16.6221C6.16519 16.5775 4.97474 16.3467 4.14285 16.0176C3.72543 15.8523 3.00027 15.5 3.00027 15C3.00028 14.3197 3.00027 13.712 3.00027 13.168C3.00027 12.1583 3.0003 12.1408 3.77469 12.4473C4.74186 12.83 6.05227 13.0748 7.49344 13.1221C7.76906 13.1308 8.00084 12.9143 8.01004 12.6387C8.01906 12.363 7.80224 12.1315 7.52664 12.1221C6.16519 12.0775 4.97474 11.8467 4.14285 11.5176C3.72543 11.3523 3.00027 11 3.00027 10.5C3.00027 9.50643 3.00027 8.94818 3.00027 8.5459ZM16.5003 10C19.5378 10 22.0003 12.4624 22.0003 15.5C22.0003 18.5376 19.5378 21 16.5003 21C14.8515 21 13.3716 20.2751 12.3636 19.126C11.5146 18.158 11.0003 16.8887 11.0003 15.5C11.0003 12.4624 13.4627 10 16.5003 10ZM8.50027 3C11.5377 3.00004 14.0003 3.67161 14.0003 4.5V6.5C14.0003 6.6445 13.9215 6.82406 13.6175 7.0332C13.3117 7.2434 12.8504 7.42915 12.2747 7.5791C11.1299 7.87723 9.67501 7.99998 8.50027 8C7.32558 8 5.87074 7.87721 4.72586 7.5791C4.15019 7.42917 3.68888 7.24338 3.38309 7.0332C3.07894 6.824 3.00027 6.64453 3.00027 6.5V4.5C3.00027 3.67158 5.46271 3 8.50027 3Z" fill="black"/>
</svg>
