<svg width="16" height="16" viewBox="0 0 16 16" fill="none" xmlns="http://www.w3.org/2000/svg">
<path d="M7.16699 0.5C10.8487 0.500176 13.833 3.4852 13.833 7.16699C13.8329 8.4032 13.4966 9.56128 12.9102 10.5537L15.0117 12.6553C15.6625 13.3062 15.6625 14.3609 15.0117 15.0117C14.3609 15.6625 13.3062 15.6624 12.6553 15.0117L10.5537 12.9102C9.56127 13.4966 8.40323 13.8329 7.16699 13.833C3.4852 13.833 0.500176 10.8487 0.5 7.16699C0.5 3.48509 3.48509 0.5 7.16699 0.5ZM7.16699 3C4.86581 3 3 4.86581 3 7.16699C3.00018 9.46803 4.86591 11.333 7.16699 11.333C9.46792 11.3328 11.3328 9.46792 11.333 7.16699C11.333 4.86591 9.46803 3.00018 7.16699 3Z" fill="black"/>
</svg>
