<svg width="16" height="16" viewBox="0 0 16 16" fill="none" xmlns="http://www.w3.org/2000/svg">
<path d="M3.62627 3.62615C4.01679 3.23562 4.64996 3.23562 5.04048 3.62615L8.00004 6.58571L10.9596 3.62615C11.3501 3.23562 11.9833 3.23562 12.3738 3.62614C12.7643 4.01667 12.7643 4.64983 12.3738 5.04036L9.41426 7.99992L12.3738 10.9595C12.7643 11.35 12.7643 11.9832 12.3738 12.3737C11.9833 12.7642 11.3501 12.7642 10.9596 12.3737L8.00004 9.41413L5.04048 12.3737C4.64996 12.7642 4.01679 12.7642 3.62627 12.3737C3.23574 11.9832 3.23574 11.35 3.62627 10.9595L6.58583 7.99992L3.62627 5.04036C3.23574 4.64983 3.23574 4.01667 3.62627 3.62615Z" fill="black"/>
</svg>
