<svg width="16" height="16" viewBox="0 0 16 16" fill="none" xmlns="http://www.w3.org/2000/svg">
<path d="M13.0003 6.33301C13.4169 6.33313 13.8333 6.56819 13.8333 7.16699C13.8333 13.8333 13.4166 15.4999 8.00032 15.5C2.58374 15.5 2.16635 13.8334 2.16634 7.16699C2.16634 6.56699 2.58365 6.33301 3.00032 6.33301H13.0003ZM6.33333 8.83301C5.87309 8.83301 5.50032 9.20676 5.50032 9.66699V11.333C5.50032 11.7932 5.87309 12.167 6.33333 12.167C6.79357 12.167 7.16634 11.7932 7.16634 11.333V9.66699C7.16634 9.20676 6.79357 8.83301 6.33333 8.83301ZM9.66634 8.83301C9.20625 8.83318 8.83333 9.20686 8.83333 9.66699V11.333C8.83333 11.7931 9.20625 12.1668 9.66634 12.167C10.1266 12.167 10.5003 11.7932 10.5003 11.333V9.66699C10.5003 9.20676 10.1266 8.83301 9.66634 8.83301ZM8.46516 0.5C9.54111 0.5 10.4968 1.18833 10.8372 2.20898L11.1126 3.03516C13.3793 3.12458 14.6663 3.44127 14.6663 4.5625C14.6663 5.5 14.2497 5.5 13.4163 5.5H2.58333C1.75 5.5 1.33333 5.5 1.33333 4.5625C1.33333 3.44123 2.62112 3.12457 4.88802 3.03516L5.16243 2.20898C5.50278 1.18831 6.45856 0.500049 7.5345 0.5H8.46516ZM7.5345 2.16699C7.17595 2.16704 6.85795 2.39622 6.74446 2.73633L6.65559 3.00195C7.08175 2.99971 7.53061 3 8.00032 3C8.46998 3 8.91893 2.99971 9.34505 3.00195L9.25618 2.73633C9.14273 2.39609 8.82383 2.16699 8.46516 2.16699H7.5345Z" fill="black"/>
</svg>
