<svg width="16" height="16" viewBox="0 0 16 16" fill="none" xmlns="http://www.w3.org/2000/svg">
<path d="M13.0003 5.50034C14.6665 5.5007 14.6663 8.7479 14.6663 9.66635C14.6663 13.7839 13.7838 14.6664 9.66634 14.6664C8.74789 14.6664 5.50069 14.6664 5.50032 13.0003C5.50032 12.5837 5.91666 12.1663 6.33333 12.1664C10.9167 12.1664 12.1663 10.9167 12.1663 6.33334C12.1663 5.91663 12.5579 5.53575 13.0003 5.50034ZM6.33333 1.33334C10.4508 1.33334 11.3333 2.21584 11.3333 6.33334C11.3333 10.4508 10.4508 11.3333 6.33333 11.3333C2.21583 11.3333 1.33333 10.4508 1.33333 6.33334C1.33333 2.21584 2.21583 1.33334 6.33333 1.33334Z" fill="black"/>
</svg>
