<svg width="16" height="16" viewBox="0 0 16 16" fill="none" xmlns="http://www.w3.org/2000/svg">
<path fill-rule="evenodd" clip-rule="evenodd" d="M7.99978 0.5C9.53012 0.5 10.8332 0.835066 11.741 1.73438C12.6504 2.63524 12.9998 3.93999 12.9998 5.5H13.574C14.4697 5.5 14.9175 5.50023 15.1668 5.78809C15.416 6.07618 15.3524 6.51963 15.2234 7.40625L14.9968 8.95996C14.601 11.6811 14.4035 13.0421 13.4646 13.8545C12.5256 14.6668 11.1501 14.667 8.40017 14.667H7.60036C4.85042 14.667 3.47496 14.6668 2.53591 13.8545C1.597 13.0421 1.39949 11.6811 1.00368 8.95996L0.777122 7.40625C0.64816 6.51963 0.584543 6.07618 0.833763 5.78809C1.08303 5.50023 1.53082 5.5 2.42654 5.5H2.99978C2.99978 3.93999 3.35016 2.63524 4.25954 1.73438C5.16729 0.835185 6.46965 0.500065 7.99978 0.5ZM7.99978 2.16699C6.67491 2.16706 5.89396 2.4617 5.4324 2.91895C4.97246 3.37474 4.66677 4.1534 4.66677 5.5H11.3338C11.3338 4.15344 11.028 3.37474 10.5681 2.91895C10.1065 2.46165 9.32492 2.16699 7.99978 2.16699Z" fill="black"/>
</svg>
