<svg width="16" height="16" viewBox="0 0 16 16" fill="none" xmlns="http://www.w3.org/2000/svg">
<path d="M8.00032 0.5C9.29578 0.500061 10.4125 0.86346 11.1712 1.80273C11.7604 2.53233 12.0494 3.51001 12.137 4.66699H12.1663C14.6662 4.66699 14.6663 4.66667 14.6663 7.19238C14.6663 13.8329 14.6667 15.4999 8.00032 15.5C1.33377 15.5 1.33333 13.8334 1.33333 7.16699C1.33333 5.91721 1.33349 5.29205 1.64583 4.97949C1.95833 4.66699 2.58333 4.66699 3.83333 4.66699H3.86361C3.95128 3.51001 4.23925 2.53233 4.82845 1.80273C5.58727 0.863263 6.70465 0.5 8.00032 0.5ZM8.00032 2.16699C7.0117 2.16699 6.46207 2.4336 6.12532 2.85059C5.83716 3.20747 5.61788 3.77772 5.53548 4.66699H10.4642C10.3818 3.77798 10.1634 3.20749 9.87532 2.85059C9.53862 2.43365 8.98874 2.16705 8.00032 2.16699Z" fill="black"/>
</svg>
