<svg width="18" height="18" viewBox="0 0 18 18" fill="none" xmlns="http://www.w3.org/2000/svg">
<path d="M8.5 8H10.5C11.0523 8 11.5 7.55228 11.5 7C11.5 6.44772 11.0523 6 10.5 6H8.5V8Z" fill="#005BFF"/>
<path d="M18 9C18 14.5842 14.5842 18 9 18C3.4158 18 0 14.5842 0 9C0 3.4158 3.4158 0 9 0C14.5842 0 18 3.4158 18 9ZM7.5 4C6.94772 4 6.5 4.44772 6.5 5V8H5.5C4.94771 8 4.5 8.44772 4.5 9C4.5 9.55228 4.94771 10 5.5 10H6.5V11H5.5C4.94771 11 4.5 11.4477 4.5 12C4.5 12.5523 4.94771 13 5.5 13H6.5V14C6.5 14.5523 6.94772 15 7.5 15C8.05228 15 8.5 14.5523 8.5 14V13H11.5C12.0523 13 12.5 12.5523 12.5 12C12.5 11.4477 12.0523 11 11.5 11H8.5V10H10.5C12.1569 10 13.5 8.65685 13.5 7C13.5 5.34315 12.1569 4 10.5 4H7.5Z" fill="#005BFF"/>
</svg>
