<svg width="18" height="16" viewBox="0 0 18 16" fill="none" xmlns="http://www.w3.org/2000/svg">
<path d="M0 7.08984C0 1.41797 0.945312 0 6.61721 0H10.3985C16.0703 0 17.0156 1.41797 17.0156 7.08984C17.0156 12.607 16.0703 13.2344 10.3985 13.2344H4.72656C4.07269 14.2036 3.0045 15.125 1.89065 15.125C0 15.125 0 9.92582 0 7.08984ZM4.72656 7.5625C5.24864 7.5625 5.67188 7.13927 5.67188 6.61719C5.67188 6.09511 5.24864 5.67188 4.72656 5.67188C4.20448 5.67188 3.78125 6.09511 3.78125 6.61719C3.78125 7.13927 4.20448 7.5625 4.72656 7.5625ZM9.45312 6.61719C9.45312 6.09511 9.02989 5.67188 8.50781 5.67188C7.98573 5.67188 7.5625 6.09511 7.5625 6.61719C7.5625 7.13927 7.98573 7.5625 8.50781 7.5625C9.02989 7.5625 9.45312 7.13927 9.45312 6.61719ZM12.2891 7.5625C12.8111 7.5625 13.2344 7.13927 13.2344 6.61719C13.2344 6.09511 12.8111 5.67188 12.2891 5.67188C11.767 5.67188 11.3438 6.09511 11.3438 6.61719C11.3438 7.13927 11.767 7.5625 12.2891 7.5625Z" fill="#001A34" fill-opacity="0.6"/>
</svg>
