<svg width="17" height="17" viewBox="0 0 17 17" fill="none" xmlns="http://www.w3.org/2000/svg">
<path d="M0 3.66667C0 0.647167 0.647167 0 3.66667 0C6.68617 0 7.33333 0.647167 7.33333 3.66667C7.33333 6.68617 6.68617 7.33333 3.66667 7.33333C0.647167 7.33333 0 6.68617 0 3.66667Z" fill="#001A34" fill-opacity="0.6"/>
<path d="M0 12.8333C0 9.81383 0.647167 9.16667 3.66667 9.16667C6.68617 9.16667 7.33333 9.81383 7.33333 12.8333C7.33333 15.8528 6.68617 16.5 3.66667 16.5C0.647167 16.5 0 15.8528 0 12.8333Z" fill="#001A34" fill-opacity="0.6"/>
<path d="M12.8333 0C9.81383 0 9.16667 0.647167 9.16667 3.66667C9.16667 6.68617 9.81383 7.33333 12.8333 7.33333C15.8528 7.33333 16.5 6.68617 16.5 3.66667C16.5 0.647167 15.8528 0 12.8333 0Z" fill="#001A34" fill-opacity="0.6"/>
<path d="M9.16667 12.8333C9.16667 9.81383 9.81383 9.16667 12.8333 9.16667C15.8528 9.16667 16.5 9.81383 16.5 12.8333C16.5 15.8528 15.8528 16.5 12.8333 16.5C9.81383 16.5 9.16667 15.8528 9.16667 12.8333Z" fill="#001A34" fill-opacity="0.6"/>
</svg>
