<svg width="375" height="52" viewBox="0 0 375 52" fill="none" xmlns="http://www.w3.org/2000/svg">
<path d="M19.01 20.55V30H17.638V21.922H17.05V20.55H19.01ZM21.036 30V28.992L24.298 25.296C25.208 24.274 25.53 23.686 25.53 23.042C25.53 22.174 24.956 21.628 24.046 21.628C23.08 21.628 22.464 22.216 22.436 23.182H21.064C21.106 21.432 22.268 20.34 24.102 20.34C25.88 20.34 26.958 21.334 26.958 22.972C26.958 23.952 26.538 24.792 25.446 26.01L23.038 28.684H26.944V30H21.036ZM30.2247 23.532V25.198H28.5587V23.532H30.2247ZM30.2247 28.334V30H28.5587V28.334H30.2247ZM38.3979 27.018V28.334H37.4039V30H36.0599V28.334H31.4679V27.186L36.1019 20.55H37.4039V27.018H38.3979ZM32.9519 27.018H36.0599V22.636H36.0039L32.9519 27.018ZM42.6584 30.21C40.6844 30.21 39.4384 29.118 39.4384 27.382C39.4384 26.178 40.0964 25.268 41.1744 24.946V24.918C40.2924 24.652 39.7044 23.812 39.7044 22.832C39.7044 21.334 40.8804 20.34 42.6584 20.34C44.4364 20.34 45.6124 21.334 45.6124 22.832C45.6124 23.812 45.0244 24.652 44.1424 24.918V24.946C45.2204 25.268 45.8784 26.178 45.8784 27.382C45.8784 29.118 44.6324 30.21 42.6584 30.21ZM42.6584 24.33C43.5824 24.33 44.1704 23.798 44.1704 22.944C44.1704 22.09 43.5964 21.558 42.6584 21.558C41.7204 21.558 41.1464 22.09 41.1464 22.944C41.1464 23.798 41.7344 24.33 42.6584 24.33ZM42.6584 28.992C43.7924 28.992 44.4364 28.362 44.4364 27.27C44.4364 26.234 43.7504 25.576 42.6584 25.576C41.5664 25.576 40.8804 26.234 40.8804 27.27C40.8804 28.362 41.5244 28.992 42.6584 28.992Z" fill="#070707"/>
<path d="M313.667 24L321 31.3333L328.333 24C324.28 19.9466 317.72 19.9466 313.667 24Z" fill="#070707"/>
<path d="M316.287 26.6205L321 31.3334L325.713 26.6205C323.108 24.0155 318.892 24.0155 316.287 26.6205Z" fill="#070707"/>
<path d="M341.667 19.3333L328.333 32.6666H341.667V19.3333Z" fill="#070707"/>
<path d="M341.667 19.3333L328.333 32.6666H341.667V19.3333Z" fill="#070707"/>
<path d="M337.564 23.4358L328.333 32.6666H337.564V23.4358Z" fill="#070707"/>
<path d="M352.5 19.3333H349.5V20.6666H348C347.448 20.6666 347 21.1143 347 21.6666V31.6666C347 32.2189 347.448 32.6666 348 32.6666H354C354.552 32.6666 355 32.2189 355 31.6666V21.6666C355 21.1143 354.552 20.6666 354 20.6666H352.5V19.3333Z" fill="#070707"/>
<path d="M347 25.3333C347 25.8888 347 31.111 347 31.6666C347 32.2189 347.448 32.6666 348 32.6666H354C354.552 32.6666 355 32.2189 355 31.6666C355 31.111 355 25.8888 355 25.3333H347Z" fill="#070707"/>
</svg>
